<svg width="240" height="145" viewBox="0 0 240 145" fill="none" xmlns="http://www.w3.org/2000/svg">
<path fill-rule="evenodd" clip-rule="evenodd" d="M237.387 98.46H2.62671V110.018L6.13372 115.054L2.62671 120.543V132.101H237.387V120.543L233.88 115.054L237.387 110.018V98.46ZM15.4392 111.666L15.7466 108.714H23.9902L23.6828 111.666H20.8744L19.8125 121.848H17.1997L18.2616 111.666H15.4392ZM24.3115 119.112L25.0241 112.337H27.3575L26.7846 117.844C26.7287 118.406 26.7846 118.804 26.9662 119.04C27.1479 119.275 27.4413 119.402 27.8325 119.402C28.3914 119.402 28.8804 119.094 29.3275 118.478L29.9702 112.337H32.3036L31.3116 121.848H28.9782L29.104 120.706C28.7966 121.105 28.4193 121.431 27.9722 121.685C27.5111 121.956 26.9942 122.083 26.4213 122.083C25.6249 122.083 25.052 121.811 24.7027 121.268C24.3395 120.743 24.2137 120.018 24.3115 119.112ZM33.2397 117.083C33.3934 115.561 33.8266 114.348 34.5252 113.442C35.2238 112.554 36.0481 112.101 36.9843 112.101C37.9204 112.101 38.5492 112.554 39.0242 113.46L39.5132 108.714H41.8466L40.4773 121.848H38.144L38.2557 120.743C37.5571 121.63 36.7887 122.083 35.9364 122.083C35.0002 122.083 34.2737 121.63 33.7567 120.743C33.2537 119.873 33.0721 118.641 33.2397 117.083ZM36.2438 115.416C36.5931 115 36.9983 114.782 37.4733 114.782C37.7248 114.782 37.9903 114.855 38.2418 115.018C38.4933 115.181 38.6749 115.38 38.8007 115.634L38.4933 118.551C38.3116 118.804 38.0881 119.003 37.8086 119.166C37.5152 119.33 37.2497 119.42 36.9982 119.42C36.5232 119.42 36.1599 119.203 35.9084 118.786C35.6569 118.351 35.5591 117.79 35.629 117.101C35.6988 116.377 35.9084 115.833 36.2438 115.416ZM42.4055 117.083C42.4753 116.413 42.629 115.779 42.8805 115.181C43.132 114.583 43.4394 114.058 43.8167 113.605C44.1939 113.152 44.655 112.79 45.1859 112.518C45.7169 112.246 46.2897 112.119 46.8906 112.119C47.7009 112.119 48.3995 112.355 48.9584 112.808C49.5313 113.261 49.9225 113.877 50.16 114.619C50.3976 115.362 50.4674 116.195 50.3696 117.101C50.2718 118.007 50.0343 118.84 49.6431 119.583C49.2518 120.326 48.7209 120.942 48.0642 121.413C47.4075 121.884 46.667 122.101 45.8426 122.101C45.0323 122.101 44.3616 121.866 43.7887 121.413C43.2298 120.942 42.8246 120.344 42.6011 119.583C42.3775 118.822 42.3077 117.989 42.4055 117.083ZM44.7947 117.083C44.8646 116.431 45.0602 115.887 45.3955 115.435C45.7309 115 46.1361 114.782 46.6251 114.782C47.1141 114.782 47.5053 115 47.7429 115.435C47.9804 115.869 48.0782 116.413 48.0083 117.083C47.9385 117.753 47.7289 118.297 47.4075 118.75C47.0862 119.203 46.653 119.42 46.15 119.42C45.647 119.42 45.2977 119.203 45.0602 118.75C44.8087 118.297 44.7249 117.753 44.7947 117.083ZM55.0084 125.471L56.3777 112.337H58.711L58.5992 113.442C59.2699 112.554 60.0384 112.101 60.9046 112.101C61.8547 112.101 62.5813 112.536 63.0843 113.424C63.5873 114.311 63.7689 115.525 63.6013 117.083C63.4336 118.659 63.0144 119.873 62.3158 120.761C61.6312 121.648 60.8068 122.083 59.8567 122.083C59.0044 122.083 58.3198 121.63 57.8308 120.724L57.3417 125.471H55.0084ZM58.0823 118.551L58.3896 115.652C58.5573 115.398 58.7809 115.199 59.0603 115.036C59.3398 114.873 59.6052 114.782 59.8707 114.782C60.3318 114.782 60.6951 115 60.9605 115.416C61.226 115.833 61.3238 116.395 61.24 117.083C61.1701 117.79 60.9605 118.351 60.6112 118.768C60.2619 119.185 59.8567 119.402 59.3956 119.402C59.1441 119.402 58.8927 119.311 58.6412 119.148C58.3897 118.985 58.194 118.786 58.0823 118.551ZM64.3697 118.967C64.4256 118.424 64.5514 117.935 64.747 117.518C64.9426 117.101 65.1801 116.793 65.4596 116.558C65.739 116.322 66.0185 116.159 66.3258 116.051C66.6332 115.942 66.9127 115.887 67.2201 115.887C67.7091 115.887 68.1422 115.978 68.5195 116.195C68.8967 116.395 69.1901 116.666 69.3718 117.011L69.4696 116.069C69.5115 115.652 69.4137 115.308 69.1762 115.054C68.9386 114.801 68.5893 114.674 68.1283 114.674C67.3877 114.674 66.6612 115.018 65.9626 115.706L65.3059 113.605C65.8089 113.098 66.3678 112.735 66.9825 112.482C67.5973 112.246 68.1981 112.119 68.7989 112.119C69.1762 112.119 69.5115 112.156 69.8189 112.228C70.1263 112.301 70.4197 112.427 70.6991 112.609C70.9786 112.79 71.2021 113.025 71.3838 113.297C71.5654 113.587 71.6912 113.949 71.775 114.384C71.8588 114.837 71.8588 115.344 71.8029 115.906L71.1882 121.848H68.8548L68.9526 120.906C68.6871 121.268 68.3378 121.558 67.9047 121.757C67.4716 121.974 67.0245 122.083 66.5494 122.083C66.256 122.083 65.9765 122.011 65.6971 121.884C65.4177 121.757 65.1662 121.558 64.9426 121.322C64.719 121.069 64.5514 120.743 64.4396 120.326C64.3418 119.927 64.3139 119.474 64.3697 118.967ZM67.1223 118.188C67.3598 117.989 67.6532 117.898 67.9746 117.898C68.24 117.898 68.4915 117.953 68.7151 118.061C68.9386 118.17 69.1063 118.333 69.2041 118.551L69.1203 119.384C68.9806 119.601 68.7849 119.764 68.5334 119.891C68.2819 120.018 68.0165 120.072 67.751 120.072C67.4296 120.072 67.1642 119.982 66.9546 119.782C66.745 119.583 66.6612 119.33 66.7031 118.967C66.731 118.641 66.8708 118.369 67.1223 118.188ZM73.0884 121.866L74.0804 112.355H76.4277L76.302 113.514C76.5954 113.116 76.9726 112.79 77.4337 112.5C77.8948 112.228 78.3279 112.083 78.7471 112.083L78.4397 115C78.3279 114.945 78.1323 114.927 77.8808 114.927C77.5595 114.927 77.2241 115 76.8609 115.163C76.4976 115.326 76.2461 115.525 76.0645 115.797L75.4357 121.866H73.0884ZM78.817 118.967C78.8728 118.424 78.9986 117.935 79.1942 117.518C79.3898 117.101 79.6274 116.793 79.9068 116.558C80.1862 116.322 80.4657 116.159 80.7731 116.051C81.0665 115.942 81.3599 115.887 81.6673 115.887C82.1563 115.887 82.5894 115.978 82.9667 116.195C83.3439 116.395 83.6374 116.666 83.819 117.011L83.9168 116.069C83.9587 115.652 83.8609 115.308 83.6234 115.054C83.3859 114.801 83.0366 114.674 82.5755 114.674C81.835 114.674 81.1084 115.018 80.4098 115.706L79.7531 113.605C80.2561 113.098 80.815 112.735 81.4158 112.482C82.0306 112.246 82.6314 112.119 83.2322 112.119C83.6094 112.119 83.9448 112.156 84.2521 112.228C84.5595 112.301 84.8529 112.427 85.1324 112.609C85.4118 112.79 85.6354 113.025 85.817 113.297C85.9987 113.587 86.1244 113.949 86.2082 114.384C86.2921 114.837 86.2921 115.344 86.2362 115.906L85.6214 121.848H83.2881L83.3859 120.906C83.1204 121.268 82.7711 121.558 82.338 121.757C81.9048 121.974 81.4577 122.083 80.9827 122.083C80.6892 122.083 80.4098 122.011 80.1303 121.884C79.8509 121.757 79.5994 121.558 79.3758 121.322C79.1523 121.069 78.9846 120.743 78.8729 120.326C78.789 119.927 78.7611 119.474 78.817 118.967ZM81.5695 118.188C81.807 117.989 82.1004 117.898 82.4218 117.898C82.6873 117.898 82.9388 117.953 83.1623 118.061C83.3859 118.17 83.5535 118.333 83.6513 118.551L83.5675 119.384C83.4278 119.601 83.2322 119.764 82.9807 119.891C82.7292 120.018 82.4637 120.072 82.1982 120.072C81.8769 120.072 81.6114 119.982 81.4018 119.782C81.1922 119.583 81.1084 119.33 81.1503 118.967C81.1783 118.641 81.318 118.369 81.5695 118.188ZM91.853 115.308C91.9927 113.985 92.356 112.808 92.9428 111.757C93.5297 110.724 94.2702 109.909 95.1644 109.348C96.0586 108.786 97.0227 108.496 98.0566 108.496C98.6435 108.496 99.1744 108.587 99.6495 108.804C100.125 109.003 100.516 109.275 100.837 109.619C101.158 109.964 101.41 110.344 101.62 110.724C101.829 111.123 101.997 111.54 102.123 112.011L99.7193 113.406C99.5936 112.862 99.37 112.409 99.0068 112.047C98.6435 111.685 98.2383 111.503 97.7632 111.503C96.9389 111.503 96.2263 111.866 95.6255 112.59C95.0247 113.315 94.6614 114.221 94.5357 115.308C94.4239 116.395 94.5915 117.301 95.0526 118.025C95.5137 118.75 96.1425 119.112 96.9668 119.112C97.4419 119.112 97.903 118.931 98.3361 118.569C98.7692 118.206 99.1046 117.753 99.3421 117.21L101.452 118.587C101.27 118.949 101.089 119.275 100.879 119.601C100.669 119.927 100.418 120.235 100.125 120.543C99.8311 120.851 99.5098 121.123 99.1744 121.359C98.8391 121.576 98.4618 121.775 98.0287 121.902C97.5956 122.047 97.1345 122.119 96.6734 122.119C95.6395 122.119 94.7313 121.83 93.9628 121.268C93.1943 120.706 92.6215 119.891 92.2442 118.859C91.8251 117.808 91.7133 116.612 91.853 115.308ZM102.36 117.101C102.43 116.431 102.584 115.797 102.835 115.199C103.087 114.601 103.394 114.076 103.771 113.623C104.149 113.17 104.61 112.808 105.141 112.536C105.671 112.264 106.244 112.137 106.845 112.137C107.656 112.137 108.354 112.373 108.913 112.826C109.486 113.279 109.877 113.895 110.115 114.637C110.352 115.38 110.422 116.214 110.324 117.119C110.226 118.025 109.989 118.859 109.598 119.601C109.206 120.344 108.675 120.96 108.019 121.431C107.362 121.902 106.622 122.119 105.797 122.119C104.987 122.119 104.316 121.884 103.743 121.431C103.184 120.96 102.779 120.362 102.556 119.601C102.318 118.822 102.262 118.007 102.36 117.101ZM104.735 117.101C104.805 116.449 105.001 115.906 105.336 115.453C105.671 115.018 106.077 114.801 106.566 114.801C107.055 114.801 107.446 115.018 107.683 115.453C107.921 115.887 108.019 116.431 107.949 117.101C107.879 117.772 107.67 118.315 107.348 118.768C107.013 119.221 106.594 119.438 106.091 119.438C105.588 119.438 105.238 119.221 105.001 118.768C104.763 118.315 104.679 117.753 104.735 117.101ZM111.26 121.866L112.252 112.355H114.586L114.46 113.514C114.753 113.134 115.131 112.79 115.592 112.518C116.053 112.246 116.584 112.101 117.157 112.101C117.953 112.101 118.526 112.373 118.875 112.916C119.224 113.46 119.35 114.203 119.252 115.109L118.554 121.83H116.22L116.793 116.34C116.905 115.29 116.556 114.764 115.759 114.764C115.201 114.764 114.684 115.072 114.236 115.688L113.594 121.83L111.26 121.866ZM119.979 120.616L121.181 118.46C121.432 118.804 121.795 119.094 122.284 119.348C122.759 119.601 123.221 119.746 123.64 119.746C124.296 119.746 124.646 119.529 124.702 119.076C124.716 118.931 124.674 118.822 124.548 118.732C124.436 118.641 124.282 118.569 124.087 118.532C123.891 118.478 123.668 118.442 123.416 118.369C123.165 118.315 122.913 118.243 122.648 118.17C122.382 118.098 122.145 117.989 121.893 117.844C121.656 117.699 121.446 117.518 121.264 117.319C121.083 117.119 120.957 116.83 120.873 116.485C120.789 116.141 120.775 115.724 120.817 115.272C120.915 114.402 121.264 113.659 121.893 113.043C122.522 112.445 123.318 112.137 124.282 112.137C125.442 112.137 126.42 112.554 127.217 113.388L126.099 115.543C125.889 115.253 125.61 115 125.246 114.801C124.869 114.601 124.478 114.493 124.059 114.493C123.793 114.493 123.556 114.547 123.388 114.674C123.207 114.801 123.109 114.945 123.081 115.145C123.067 115.272 123.123 115.362 123.234 115.453C123.346 115.543 123.5 115.598 123.696 115.634C123.891 115.67 124.115 115.724 124.366 115.797C124.618 115.869 124.869 115.924 125.121 115.996C125.386 116.069 125.624 116.177 125.861 116.34C126.099 116.503 126.308 116.685 126.49 116.884C126.672 117.101 126.797 117.373 126.881 117.735C126.965 118.098 126.979 118.514 126.937 118.985C126.839 119.909 126.462 120.652 125.805 121.232C125.149 121.811 124.31 122.101 123.276 122.101C122.62 122.101 121.991 121.974 121.39 121.703C120.775 121.431 120.314 121.069 119.979 120.616ZM127.999 114.964L128.278 112.337H129.494L129.773 109.746H132.107L131.827 112.337H133.294L133.015 114.964H131.548L131.185 118.46C131.157 118.75 131.185 118.967 131.282 119.148C131.38 119.33 131.52 119.42 131.716 119.42C131.841 119.42 131.967 119.402 132.079 119.348C132.205 119.293 132.288 119.239 132.33 119.185L132.54 121.467C132.149 121.884 131.548 122.101 130.738 122.101C129.997 122.101 129.452 121.866 129.103 121.395C128.767 120.924 128.642 120.217 128.74 119.311L129.187 114.982L127.999 114.964ZM133.672 121.866L134.664 112.355H136.997L136.871 113.514C137.165 113.116 137.542 112.79 138.003 112.5C138.464 112.228 138.897 112.083 139.316 112.083L139.009 115C138.897 114.945 138.702 114.927 138.45 114.927C138.129 114.927 137.794 115 137.43 115.163C137.067 115.326 136.815 115.525 136.634 115.797L136.005 121.866H133.672ZM139.847 119.112L140.56 112.337H142.893L142.32 117.844C142.265 118.406 142.32 118.804 142.502 119.04C142.684 119.275 142.977 119.402 143.368 119.402C143.927 119.402 144.416 119.094 144.863 118.478L145.506 112.337H147.839L146.847 121.848H144.514L144.64 120.706C144.332 121.105 143.955 121.431 143.494 121.685C143.033 121.956 142.516 122.083 141.943 122.083C141.147 122.083 140.574 121.811 140.225 121.268C139.875 120.743 139.75 120.018 139.847 119.112ZM148.776 117.083C148.873 116.105 149.139 115.253 149.572 114.493C149.991 113.732 150.536 113.152 151.193 112.735C151.85 112.319 152.548 112.119 153.303 112.119C154.057 112.119 154.63 112.282 155.105 112.627C155.58 112.971 155.915 113.387 156.111 113.877L154.406 115.706C154.155 115.109 153.722 114.801 153.121 114.801C152.618 114.801 152.185 115 151.822 115.416C151.458 115.833 151.235 116.395 151.165 117.101C151.095 117.808 151.193 118.369 151.472 118.786C151.752 119.203 152.143 119.42 152.632 119.42C153.219 119.42 153.708 119.112 154.113 118.496L155.426 120.344C155.161 120.779 154.798 121.159 154.337 121.467C153.875 121.793 153.345 121.974 152.73 122.047L152.422 122.772C152.604 122.645 152.772 122.572 152.953 122.572C153.247 122.572 153.47 122.699 153.638 122.971C153.82 123.243 153.875 123.587 153.834 123.985C153.778 124.511 153.568 124.927 153.205 125.235C152.842 125.543 152.408 125.706 151.905 125.706C151.542 125.706 151.221 125.652 150.913 125.525C150.62 125.398 150.396 125.253 150.243 125.072L150.788 123.931C151.165 124.33 151.556 124.511 151.975 124.511C152.171 124.511 152.353 124.456 152.492 124.366C152.646 124.275 152.73 124.13 152.744 123.949C152.772 123.659 152.66 123.514 152.408 123.514C152.227 123.514 152.073 123.605 151.933 123.768L151.207 123.17L151.64 122.029C150.648 121.866 149.879 121.34 149.335 120.453C148.832 119.565 148.636 118.442 148.776 117.083ZM156.363 118.967C156.418 118.424 156.544 117.935 156.74 117.518C156.935 117.101 157.173 116.793 157.452 116.558C157.732 116.322 158.011 116.159 158.305 116.051C158.598 115.942 158.891 115.887 159.199 115.887C159.688 115.887 160.135 115.978 160.512 116.195C160.889 116.395 161.183 116.666 161.365 117.029L161.462 116.087C161.504 115.67 161.406 115.326 161.183 115.072C160.945 114.819 160.596 114.692 160.135 114.692C159.394 114.692 158.668 115.036 157.969 115.724L157.327 113.623C157.83 113.116 158.388 112.753 159.003 112.5C159.604 112.264 160.219 112.137 160.82 112.137C161.197 112.137 161.532 112.174 161.84 112.246C162.147 112.319 162.44 112.445 162.72 112.627C162.999 112.808 163.223 113.043 163.404 113.315C163.586 113.605 163.712 113.967 163.796 114.402C163.88 114.855 163.88 115.362 163.824 115.924L163.209 121.866H160.876L160.973 120.924C160.708 121.286 160.359 121.558 159.925 121.775C159.492 121.993 159.045 122.101 158.57 122.101C158.277 122.101 157.997 122.029 157.718 121.902C157.438 121.775 157.187 121.576 156.963 121.34C156.74 121.087 156.572 120.761 156.46 120.344C156.349 119.945 156.307 119.474 156.363 118.967ZM158.458 110.833C158.64 109.076 159.311 108.188 160.442 108.188C160.666 108.188 160.848 108.243 161.029 108.351C161.197 108.46 161.337 108.587 161.42 108.732C161.504 108.859 161.616 108.985 161.714 109.112C161.826 109.221 161.923 109.275 162.035 109.275C162.161 109.275 162.287 109.203 162.385 109.04C162.482 108.877 162.552 108.641 162.594 108.315H163.782C163.684 109.185 163.474 109.837 163.139 110.29C162.804 110.743 162.357 110.96 161.798 110.96C161.574 110.96 161.393 110.906 161.211 110.797C161.029 110.688 160.903 110.561 160.82 110.416C160.736 110.29 160.624 110.163 160.526 110.036C160.414 109.927 160.317 109.873 160.205 109.873C160.079 109.873 159.953 109.964 159.856 110.109C159.758 110.253 159.688 110.507 159.646 110.833H158.458ZM159.129 118.188C159.367 117.989 159.66 117.898 159.981 117.898C160.247 117.898 160.498 117.953 160.722 118.061C160.945 118.17 161.113 118.333 161.211 118.551L161.127 119.384C160.987 119.601 160.792 119.764 160.54 119.891C160.289 120.018 160.023 120.072 159.758 120.072C159.436 120.072 159.171 119.982 158.961 119.782C158.752 119.583 158.668 119.33 158.71 118.967C158.738 118.641 158.878 118.388 159.129 118.188ZM165.123 117.101C165.193 116.431 165.347 115.797 165.598 115.199C165.85 114.601 166.157 114.076 166.534 113.623C166.911 113.17 167.373 112.808 167.904 112.536C168.434 112.264 169.007 112.137 169.608 112.137C170.419 112.137 171.117 112.373 171.676 112.826C172.249 113.279 172.64 113.895 172.878 114.637C173.115 115.38 173.185 116.214 173.087 117.119C172.989 118.025 172.752 118.859 172.361 119.601C171.969 120.344 171.438 120.96 170.782 121.431C170.125 121.902 169.385 122.119 168.56 122.119C167.736 122.119 167.079 121.884 166.506 121.431C165.947 120.96 165.542 120.362 165.319 119.601C165.095 118.822 165.025 118.007 165.123 117.101ZM167.512 117.101C167.582 116.449 167.778 115.906 168.113 115.453C168.448 115.018 168.854 114.801 169.343 114.801C169.832 114.801 170.223 115.018 170.46 115.453C170.698 115.887 170.796 116.431 170.726 117.101C170.656 117.772 170.446 118.315 170.125 118.768C169.804 119.221 169.371 119.438 168.868 119.438C168.365 119.438 168.015 119.221 167.778 118.768C167.526 118.297 167.442 117.753 167.512 117.101ZM177.95 118.967C178.005 118.424 178.131 117.935 178.327 117.518C178.522 117.101 178.76 116.793 179.039 116.558C179.319 116.322 179.598 116.159 179.906 116.051C180.213 115.942 180.492 115.887 180.8 115.887C181.289 115.887 181.722 115.978 182.099 116.195C182.477 116.395 182.77 116.666 182.952 117.011L183.049 116.069C183.091 115.652 182.993 115.308 182.756 115.054C182.518 114.801 182.169 114.674 181.708 114.674C180.968 114.674 180.241 115.018 179.542 115.706L178.886 113.605C179.389 113.098 179.948 112.735 180.548 112.482C181.163 112.246 181.764 112.119 182.365 112.119C182.742 112.119 183.077 112.156 183.385 112.228C183.692 112.301 183.986 112.427 184.265 112.609C184.544 112.79 184.768 113.025 184.95 113.297C185.131 113.587 185.257 113.949 185.341 114.384C185.425 114.837 185.425 115.344 185.369 115.906L184.754 121.848H182.421L182.518 120.906C182.253 121.268 181.904 121.558 181.471 121.757C181.037 121.974 180.59 122.083 180.115 122.083C179.822 122.083 179.542 122.011 179.263 121.884C178.983 121.757 178.732 121.558 178.508 121.322C178.285 121.069 178.117 120.743 178.005 120.326C177.922 119.945 177.894 119.474 177.95 118.967ZM180.702 118.188C180.94 117.989 181.233 117.898 181.554 117.898C181.82 117.898 182.071 117.953 182.295 118.061C182.518 118.17 182.686 118.333 182.784 118.551L182.7 119.384C182.56 119.601 182.365 119.764 182.113 119.891C181.862 120.018 181.596 120.072 181.331 120.072C181.009 120.072 180.744 119.982 180.534 119.782C180.325 119.583 180.241 119.33 180.283 118.967C180.311 118.641 180.451 118.388 180.702 118.188ZM190.287 120.018L191.95 117.391C192.299 117.898 192.718 118.315 193.249 118.641C193.766 118.967 194.367 119.13 195.024 119.13C195.471 119.13 195.834 119.04 196.099 118.859C196.379 118.677 196.533 118.424 196.56 118.098C196.574 117.916 196.533 117.753 196.407 117.627C196.295 117.5 196.127 117.391 195.904 117.319C195.694 117.246 195.443 117.156 195.163 117.083C194.884 116.993 194.604 116.902 194.297 116.793C193.99 116.685 193.696 116.576 193.375 116.467C193.067 116.359 192.774 116.195 192.509 115.996C192.243 115.779 192.02 115.543 191.824 115.272C191.628 115 191.489 114.638 191.405 114.203C191.321 113.768 191.307 113.279 191.363 112.735C191.419 112.174 191.572 111.648 191.796 111.159C192.019 110.67 192.327 110.217 192.704 109.837C193.081 109.438 193.528 109.148 194.073 108.913C194.618 108.677 195.205 108.569 195.834 108.569C197.497 108.569 198.796 109.185 199.76 110.398L198.069 112.935C197.706 112.482 197.273 112.137 196.77 111.902C196.267 111.666 195.764 111.558 195.247 111.558C194.521 111.558 194.129 111.866 194.059 112.482C194.045 112.663 194.087 112.808 194.213 112.935C194.325 113.061 194.493 113.17 194.702 113.243C194.912 113.315 195.163 113.406 195.429 113.496C195.708 113.587 195.988 113.695 196.295 113.804C196.602 113.913 196.896 114.022 197.217 114.13C197.525 114.239 197.818 114.402 198.083 114.601C198.349 114.801 198.572 115.054 198.768 115.326C198.964 115.598 199.103 115.942 199.187 116.359C199.271 116.775 199.299 117.246 199.243 117.753C199.103 119.094 198.628 120.163 197.804 120.96C196.98 121.757 195.904 122.156 194.562 122.156C192.718 122.101 191.293 121.413 190.287 120.018ZM200.179 117.101C200.277 116.177 200.529 115.344 200.934 114.601C201.339 113.84 201.87 113.243 202.499 112.808C203.141 112.355 203.84 112.137 204.58 112.137C205.684 112.137 206.537 112.627 207.137 113.587C207.738 114.547 207.948 115.833 207.78 117.427L207.71 118.116H202.485C202.527 118.569 202.694 118.949 202.974 119.239C203.267 119.529 203.658 119.674 204.161 119.674C204.441 119.674 204.762 119.601 205.139 119.438C205.517 119.293 205.81 119.094 206.034 118.859L206.844 120.851C206.453 121.268 205.964 121.576 205.391 121.793C204.818 122.011 204.231 122.119 203.644 122.119C202.89 122.119 202.233 121.92 201.674 121.522C201.115 121.123 200.696 120.543 200.431 119.764C200.165 118.985 200.081 118.098 200.179 117.101ZM202.68 116.032C202.778 115.616 202.96 115.272 203.225 114.982C203.491 114.692 203.868 114.547 204.329 114.547C204.818 114.547 205.167 114.692 205.391 114.982C205.6 115.272 205.712 115.616 205.698 116.014H202.68V116.032ZM208.702 117.101C208.8 116.123 209.066 115.253 209.499 114.511C209.918 113.75 210.463 113.17 211.119 112.753C211.776 112.337 212.475 112.137 213.229 112.137C213.984 112.137 214.557 112.301 215.032 112.645C215.507 112.989 215.842 113.406 216.038 113.895L214.333 115.724C214.082 115.127 213.648 114.819 213.048 114.819C212.545 114.819 212.111 115.018 211.748 115.435C211.385 115.851 211.161 116.413 211.092 117.119C211.022 117.826 211.119 118.387 211.399 118.804C211.678 119.221 212.07 119.438 212.559 119.438C213.145 119.438 213.648 119.13 214.04 118.514L215.353 120.362C215.046 120.851 214.626 121.268 214.082 121.612C213.537 121.956 212.908 122.119 212.167 122.119C211.008 122.119 210.099 121.648 209.443 120.724C208.786 119.782 208.549 118.587 208.702 117.101ZM216.485 117.101C216.555 116.431 216.708 115.797 216.96 115.199C217.211 114.601 217.519 114.076 217.896 113.623C218.273 113.17 218.734 112.808 219.265 112.536C219.796 112.264 220.369 112.137 220.97 112.137C221.78 112.137 222.479 112.373 223.038 112.826C223.611 113.279 224.002 113.895 224.239 114.637C224.477 115.38 224.547 116.214 224.449 117.119C224.351 118.025 224.114 118.859 223.722 119.601C223.331 120.344 222.8 120.96 222.144 121.431C221.487 121.902 220.746 122.119 219.922 122.119C219.098 122.119 218.441 121.884 217.868 121.431C217.309 120.96 216.904 120.362 216.68 119.601C216.457 118.84 216.387 118.007 216.485 117.101ZM218.874 117.101C218.944 116.449 219.139 115.906 219.475 115.453C219.81 115.018 220.215 114.801 220.704 114.801C221.193 114.801 221.585 115.018 221.822 115.453C222.06 115.887 222.157 116.431 222.088 117.101C222.018 117.772 221.808 118.315 221.487 118.768C221.151 119.221 220.732 119.438 220.229 119.438C219.726 119.438 219.377 119.221 219.139 118.768C218.902 118.315 218.804 117.753 218.874 117.101Z" fill="#F78122"/>
<path fill-rule="evenodd" clip-rule="evenodd" d="M111.847 78.3153H103.017V74.3117H110.981C112.336 74.3117 112.755 73.9131 112.881 73.6776C112.909 73.587 113.021 73.1341 113.021 71.4131C113.021 71.0508 113.021 70.0907 111.065 70.0907H107.963C106.594 70.0907 105.448 69.7465 104.568 69.058C103.52 68.2428 102.989 67.1015 102.989 65.6704V62.6812C102.989 61.1233 103.562 59.8914 104.68 58.9856C105.448 58.3696 106.51 58.0617 107.907 58.0617H116.891V62.0653H108.927C107.502 62.0653 107.125 62.482 107.027 62.6631C106.985 62.7356 106.845 63.1522 106.845 64.7283C106.845 65.1812 106.985 65.4892 107.306 65.7428C107.516 65.9059 107.963 66.087 108.927 66.087H112.029C113.44 66.087 114.6 66.4675 115.466 67.2102C116.402 68.0073 116.863 69.1667 116.863 70.616V73.6233C116.863 75.145 116.388 76.3225 115.438 77.1378C114.558 77.9167 113.342 78.3153 111.847 78.3153ZM226.824 78.3153H222.954V62.0109H217.994V58.0073H231.826V62.0109H226.838V78.3153H226.824ZM195.666 62.0834V67.4457C196.016 67.174 196.505 66.9928 197.231 66.9928L201.493 66.9566C203.155 66.9566 203.155 66.0508 203.155 65.6704V63.4783C203.155 63.0979 203.155 62.1015 201.227 62.1015L195.666 62.0834ZM207.962 78.3153H202.778L195.666 71.0508V78.3153H191.796V58.0617H202.08C206.173 58.0617 207.026 60.5979 207.026 62.7356V66.0327C207.026 67.4095 206.565 68.5508 205.67 69.3841C204.818 70.1812 203.7 70.5798 202.345 70.5798H200.361L207.962 78.3153ZM169.077 69.8008H173.66L171.257 63.4059L169.077 69.8008ZM180.982 78.3153H176.804L175.057 73.6595H167.722L165.975 78.3153H161.798L168.644 60.1269C169.161 58.7682 170.111 58.0617 171.383 58.0617C172.654 58.0617 173.604 58.7682 174.121 60.1088L180.982 78.3153ZM140.448 78.732C139.792 78.732 139.247 78.4965 138.814 78.0073C138.548 77.6812 138.297 77.2102 138.045 76.5399L133.672 65.3805V78.4059H129.927V61.2138C129.927 60.308 130.207 59.5472 130.752 58.9493C131.283 58.3878 131.995 58.0979 132.889 58.0979C134.608 58.0979 135.39 59.2573 135.754 60.2175L140.406 72.5907L145.143 60.1993C145.674 58.8044 146.666 58.0617 147.979 58.0617C148.901 58.0617 149.628 58.3696 150.145 58.9493C150.676 59.5653 150.955 60.3443 150.955 61.2863V78.424H147.211V65.4349L142.963 76.4494C142.376 77.953 141.524 78.732 140.448 78.732Z" fill="#19181C"/>
<path d="M237.387 48.6594H97.428V49.4928H237.387V48.6594Z" fill="#F78122"/>
<path fill-rule="evenodd" clip-rule="evenodd" d="M48.651 57.5905L2.62671 57.1558L48.5672 57.9529L83.5256 57.1558L48.651 57.5905Z" fill="#FFD527"/>
<path fill-rule="evenodd" clip-rule="evenodd" d="M48.6511 41.8115V57.5905L83.5257 57.1557L83.5536 45.7608L48.6511 41.8115Z" fill="#FB9950"/>
<path fill-rule="evenodd" clip-rule="evenodd" d="M48.6511 57.5905V41.8115L2.62671 45.7608V57.1557L48.6511 57.5905Z" fill="#F8811D"/>
<path fill-rule="evenodd" clip-rule="evenodd" d="M2.62671 67.1377L48.6231 69.5833L83.5256 67.1739L48.6091 67.5544L2.62671 67.1377Z" fill="#656565"/>
<path fill-rule="evenodd" clip-rule="evenodd" d="M48.6511 68.9311V84.2753L83.5536 78.5869L83.5257 67.1738L48.6511 68.9311Z" fill="#9A989B"/>
<path fill-rule="evenodd" clip-rule="evenodd" d="M48.6511 84.2754V68.9312L2.62671 67.1377V78.5507L48.6511 84.2754Z" fill="#808080"/>
<path fill-rule="evenodd" clip-rule="evenodd" d="M2.62671 35.6883L48.6091 35.2717L83.5256 35.6521L48.651 29.0398L2.62671 35.6883Z" fill="#666769"/>
<path fill-rule="evenodd" clip-rule="evenodd" d="M48.6511 15.1631V30.4892L83.5257 35.6522L83.5536 24.2573L48.6511 15.1631Z" fill="#9A989B"/>
<path fill-rule="evenodd" clip-rule="evenodd" d="M48.6511 30.4892V15.1631L2.62671 24.2935V35.6884L48.6511 30.4892Z" fill="#808080"/>
<path fill-rule="evenodd" clip-rule="evenodd" d="M102.919 36.6847V26.7391C102.919 26.4311 102.947 26.1412 102.989 25.8695C103.031 25.5978 103.101 25.3441 103.199 25.0905C103.296 24.855 103.408 24.6195 103.548 24.4202C103.688 24.2028 103.841 24.0217 104.023 23.8405C104.205 23.6594 104.4 23.5144 104.624 23.3695C104.847 23.2246 105.085 23.134 105.336 23.0434C105.588 22.9528 105.853 22.8985 106.133 22.8441C106.412 22.8079 106.72 22.7717 107.027 22.7717H115.019V25.3804H107.502C107.027 25.3804 106.65 25.4347 106.342 25.5434C106.007 25.6521 105.755 25.8333 105.588 26.0326C105.448 26.1956 105.35 26.3768 105.28 26.576C105.211 26.8115 105.183 27.0652 105.183 27.3007V30.3079H114.488V32.8804H105.183V35.8695C105.183 36.105 105.211 36.3586 105.28 36.5941C105.35 36.7934 105.448 36.9927 105.588 37.1557C105.769 37.355 106.007 37.5362 106.356 37.6449C106.664 37.7536 107.055 37.8079 107.53 37.8079H115.019V40.4166H107.264C106.929 40.4166 106.622 40.3985 106.328 40.3623C106.035 40.326 105.755 40.2717 105.504 40.1992L105.448 40.1811C105.211 40.1086 104.987 40.0181 104.763 39.9094C104.54 39.8007 104.33 39.6557 104.149 39.5108C103.939 39.3478 103.771 39.1666 103.618 38.9673C103.464 38.7681 103.338 38.5507 103.226 38.3152C103.129 38.0797 103.045 37.826 102.989 37.5543C102.947 37.2826 102.919 36.9927 102.919 36.6847ZM203.141 40.8695V40.4347H200.487C200.165 40.4347 199.858 40.4166 199.565 40.3804C199.271 40.3441 199.006 40.2717 198.754 40.1992C198.489 40.1086 198.251 39.9999 198.042 39.8731C197.846 39.7644 197.664 39.6195 197.497 39.4746L197.441 39.4202C197.259 39.2572 197.105 39.0579 196.966 38.8586C196.826 38.6594 196.714 38.4239 196.63 38.1883C196.547 37.9528 196.477 37.6811 196.435 37.4094C196.393 37.1376 196.365 36.8478 196.365 36.5217V26.6847C196.365 26.3224 196.393 25.9963 196.435 25.6883C196.477 25.3804 196.547 25.1086 196.644 24.8369L196.672 24.7463C196.756 24.5108 196.868 24.2934 197.008 24.1123C197.147 23.8949 197.329 23.7137 197.511 23.5507C197.678 23.4057 197.874 23.297 198.084 23.1883C198.307 23.0797 198.545 23.0072 198.824 22.9347C199.09 22.8623 199.383 22.826 199.69 22.7898C200.012 22.7536 200.347 22.7355 200.71 22.7355H208.507V25.3623H200.892C200.696 25.3623 200.501 25.3623 200.333 25.3804C200.165 25.3985 200.012 25.4166 199.872 25.4528C199.732 25.4891 199.62 25.5253 199.509 25.5797C199.397 25.634 199.313 25.6883 199.229 25.7427C199.131 25.8333 199.034 25.9239 198.964 26.0326C198.894 26.1412 198.824 26.2681 198.782 26.3768C198.726 26.5036 198.698 26.6485 198.67 26.7934C198.642 26.9383 198.628 27.1014 198.628 27.2644V35.6159C198.628 35.8333 198.642 36.0326 198.67 36.2137C198.698 36.3949 198.726 36.5579 198.782 36.7028V36.721C198.824 36.8478 198.88 36.9746 198.95 37.0833C199.02 37.192 199.09 37.2826 199.173 37.3731C199.257 37.4456 199.369 37.5181 199.481 37.5905C199.607 37.6449 199.732 37.6992 199.886 37.7355C200.04 37.7717 200.221 37.8079 200.417 37.826C200.613 37.8441 200.822 37.8623 201.046 37.8623H208.507V40.3985H204.734V41.1956C204.734 41.413 204.72 41.6304 204.692 41.8115C204.664 42.0108 204.623 42.192 204.553 42.355C204.497 42.5181 204.413 42.6811 204.315 42.8079C204.217 42.9528 204.12 43.0615 203.994 43.1702H203.98C203.868 43.2608 203.756 43.3333 203.617 43.3876C203.477 43.4601 203.323 43.5144 203.155 43.5507C202.988 43.5869 202.82 43.6231 202.624 43.6412C202.429 43.6594 202.233 43.6775 202.01 43.6775H201.786L201.772 43.605L201.758 43.3876L201.646 42.192L201.619 41.9202L201.605 41.8115H201.884C202.01 41.8115 202.108 41.8115 202.205 41.7934C202.303 41.7753 202.401 41.7753 202.471 41.7572C202.541 41.7391 202.611 41.721 202.68 41.6847C202.736 41.6666 202.792 41.6304 202.834 41.5941C202.89 41.5398 202.932 41.4854 202.974 41.4311C203.016 41.3768 203.044 41.3224 203.072 41.2499C203.1 41.1775 203.114 41.105 203.128 41.0326C203.128 41.0507 203.128 40.9601 203.141 40.8695ZM180.437 34.7101H175.351L173.255 40.2536L173.199 40.3804L173.185 40.4347H170.67L170.726 40.3079L170.852 39.9637L176.734 24.3659V24.3478C176.832 24.076 176.958 23.8586 177.097 23.6594C177.237 23.4601 177.405 23.297 177.586 23.1521C177.768 23.0253 177.964 22.9166 178.187 22.8623C178.411 22.8079 178.634 22.7717 178.9 22.7717C179.165 22.7717 179.389 22.8079 179.612 22.8623C179.836 22.9347 180.032 23.0253 180.213 23.1521C180.395 23.2789 180.562 23.4601 180.702 23.6594C180.842 23.8586 180.968 24.0941 181.065 24.3478V24.3659L186.948 39.9637L187.073 40.3079L187.115 40.4347H184.6L184.586 40.3804L184.531 40.2536L179.151 26.0144V25.9963L179.095 25.8695C179.081 25.8514 179.067 25.8333 179.053 25.8152C179.039 25.797 179.025 25.7789 178.998 25.7789L178.984 25.7608C178.984 25.7608 178.956 25.7427 178.942 25.7427C178.928 25.7427 178.9 25.7246 178.886 25.7246C178.872 25.7246 178.844 25.7246 178.816 25.7427C178.788 25.7427 178.774 25.7608 178.76 25.7789L178.746 25.797C178.746 25.797 178.718 25.8152 178.704 25.8333C178.69 25.8514 178.676 25.8695 178.662 25.9057L178.62 26.0144L176.287 32.192H179.864L179.878 32.2463L179.934 32.3731L180.646 34.2391L180.772 34.5833L180.814 34.7101H180.437ZM221.207 26.5217C221.166 26.6485 221.138 26.8115 221.11 26.9746C221.082 27.1557 221.068 27.355 221.068 27.5543V35.7065C221.068 36.0688 221.124 36.3949 221.221 36.6666C221.277 36.7934 221.333 36.9202 221.417 37.047C221.487 37.1557 221.585 37.2644 221.683 37.3731C221.766 37.4456 221.864 37.5181 221.962 37.5724C222.074 37.6268 222.2 37.6811 222.339 37.7173C222.493 37.7536 222.661 37.7898 222.842 37.8079C223.038 37.826 223.233 37.8441 223.457 37.8441H227.202C227.411 37.8441 227.607 37.826 227.802 37.8079C227.984 37.7898 228.152 37.7536 228.305 37.7173C228.459 37.6811 228.585 37.6268 228.711 37.5724C228.836 37.5181 228.934 37.4456 229.032 37.3731L229.046 37.355C229.13 37.2826 229.214 37.192 229.269 37.1014C229.339 36.9927 229.395 36.884 229.451 36.7572C229.493 36.6304 229.535 36.4673 229.563 36.3043C229.591 36.1412 229.605 35.9601 229.605 35.7608V27.5362C229.605 27.3188 229.591 27.1195 229.563 26.9565C229.535 26.7753 229.507 26.6123 229.451 26.4673C229.409 26.3224 229.353 26.2137 229.283 26.105C229.214 25.9963 229.13 25.9057 229.046 25.8333C228.962 25.7608 228.85 25.6883 228.738 25.634C228.613 25.5797 228.487 25.5253 228.333 25.4891C228.18 25.4528 228.012 25.4166 227.83 25.3985C227.649 25.3804 227.439 25.3623 227.216 25.3623H223.471C223.247 25.3623 223.038 25.3804 222.842 25.3985C222.661 25.4166 222.493 25.4528 222.353 25.4891H222.325C222.172 25.5253 222.032 25.5797 221.92 25.634C221.808 25.6883 221.697 25.7608 221.613 25.8333C221.529 25.9057 221.445 25.9963 221.375 26.105C221.305 26.2137 221.249 26.3405 221.207 26.4673V26.5217ZM218.804 36.4673V26.8297C218.804 26.4855 218.832 26.1775 218.888 25.8695C218.944 25.5615 219.028 25.2898 219.14 25.0181C219.251 24.7463 219.391 24.5108 219.545 24.2934C219.699 24.076 219.908 23.8586 220.118 23.6775L220.132 23.6594C220.299 23.5144 220.495 23.3876 220.704 23.2608C220.928 23.1521 221.166 23.0434 221.445 22.971C221.71 22.8985 221.99 22.8441 222.311 22.8079C222.619 22.7717 222.954 22.7536 223.303 22.7536H227.425C228.152 22.7536 228.794 22.826 229.339 22.9891C229.884 23.1521 230.345 23.4057 230.723 23.7318C231.1 24.076 231.393 24.4927 231.589 25.0181C231.784 25.5253 231.868 26.1231 231.868 26.8115V36.413C231.868 37.0833 231.77 37.6811 231.575 38.1883C231.393 38.6775 231.114 39.0941 230.737 39.4383L230.709 39.4746C230.331 39.8007 229.87 40.0362 229.325 40.1992C228.78 40.3623 228.138 40.4347 227.397 40.4347H223.303C222.954 40.4347 222.619 40.4166 222.311 40.3804C222.004 40.3441 221.71 40.2898 221.445 40.2173C221.166 40.1449 220.928 40.0543 220.691 39.9456C220.453 39.8369 220.257 39.7101 220.076 39.547L220.02 39.5108C219.824 39.3478 219.657 39.1666 219.517 38.9673C219.349 38.7499 219.223 38.5144 219.112 38.2427C219 37.9891 218.93 37.6992 218.874 37.4094C218.832 37.1195 218.804 36.7934 218.804 36.4673ZM159.604 30.634C159.786 30.4528 159.912 30.2536 159.995 30.0362C160.093 29.7644 160.135 29.4746 160.135 29.1847V27.0833C160.135 26.8297 160.107 26.576 160.009 26.3405C159.926 26.1412 159.814 25.9601 159.632 25.797C159.464 25.6521 159.241 25.5253 158.947 25.4347C158.682 25.3623 158.361 25.3079 157.983 25.3079H151.277V31.1594H157.914C158.305 31.1594 158.64 31.105 158.906 31.0326C159.213 30.9239 159.437 30.797 159.604 30.634ZM162.399 28.0434V29.0579C162.399 29.4202 162.399 29.7282 162.399 29.9999C162.399 30.2898 162.371 30.5797 162.329 30.8333C162.287 31.105 162.217 31.3405 162.119 31.576C162.035 31.8115 161.91 32.0289 161.784 32.2282C161.644 32.4275 161.49 32.6086 161.309 32.7898L161.253 32.8441C161.085 32.9891 160.904 33.1159 160.722 33.2427C160.512 33.3695 160.275 33.4782 160.023 33.5688C159.772 33.6594 159.52 33.7137 159.241 33.7499C158.961 33.7862 158.668 33.8043 158.361 33.8043H151.277V40.4347H149.013V22.6992H158.235C158.528 22.6992 158.808 22.7173 159.073 22.7536C159.339 22.7898 159.59 22.8441 159.842 22.9166C160.093 22.9891 160.317 23.0797 160.526 23.1883C160.736 23.297 160.945 23.4239 161.127 23.5688C161.323 23.7318 161.504 23.913 161.658 24.0941C161.812 24.2753 161.938 24.4927 162.035 24.7101C162.133 24.9275 162.217 25.163 162.273 25.4166C162.329 25.6702 162.357 25.9239 162.357 26.2137L162.371 27.1195C162.385 27.4094 162.385 27.7173 162.399 28.0434ZM137.989 33.8768V36.6666C137.989 36.9746 137.961 37.2463 137.919 37.5181C137.877 37.7898 137.808 38.0434 137.71 38.2789C137.612 38.5144 137.5 38.7318 137.347 38.9311C137.207 39.1304 137.039 39.3115 136.857 39.4746C136.662 39.6376 136.466 39.7826 136.229 39.9094C136.005 40.0362 135.754 40.1268 135.502 40.2173C135.237 40.2898 134.971 40.3623 134.678 40.3985C134.384 40.4347 134.077 40.4528 133.756 40.4528H126.001V37.8441H133.434C133.742 37.8441 134.007 37.826 134.245 37.7898C134.482 37.7536 134.692 37.6811 134.873 37.6086C135.041 37.5362 135.181 37.4456 135.293 37.3369C135.404 37.2282 135.502 37.1014 135.572 36.9746C135.586 36.9383 135.614 36.8659 135.628 36.7934C135.642 36.7028 135.67 36.576 135.684 36.413C135.698 36.2318 135.726 35.9963 135.74 35.7065C135.754 35.4166 135.754 35.0543 135.754 34.6014C135.754 34.384 135.726 34.1485 135.656 33.9311C135.6 33.7499 135.502 33.5688 135.362 33.4239C135.195 33.2427 134.957 33.0797 134.622 32.971C134.329 32.8804 133.951 32.8079 133.49 32.8079H130.137C129.843 32.8079 129.564 32.7898 129.299 32.7536C129.033 32.7173 128.768 32.663 128.53 32.5905C128.279 32.5181 128.055 32.4275 127.831 32.3188C127.622 32.2101 127.412 32.0833 127.231 31.9383L127.217 31.9202C127.007 31.7572 126.825 31.576 126.672 31.3949C126.518 31.1956 126.378 30.9963 126.281 30.7789C126.169 30.5615 126.099 30.3079 126.043 30.0724C125.987 29.8369 125.959 29.547 125.959 29.2753V26.5217C125.959 26.2137 125.987 25.9239 126.043 25.634C126.099 25.3441 126.183 25.0905 126.308 24.8369C126.42 24.5833 126.56 24.3659 126.742 24.1485C126.909 23.9311 127.105 23.7318 127.342 23.5507L127.384 23.5144C127.538 23.4057 127.706 23.297 127.873 23.2065C128.069 23.1159 128.293 23.0253 128.516 22.9528C128.74 22.8804 128.991 22.8441 129.257 22.8079C129.522 22.7717 129.802 22.7536 130.095 22.7536H138.003V25.3623H130.57C130.277 25.3623 130.011 25.3804 129.774 25.4166C129.536 25.4528 129.326 25.5072 129.145 25.5797C128.977 25.6521 128.837 25.7246 128.726 25.8333C128.614 25.9239 128.516 26.0507 128.46 26.1775C128.418 26.2499 128.39 26.3405 128.362 26.4673C128.334 26.5941 128.307 26.7391 128.293 26.9202C128.265 27.1195 128.251 27.3369 128.237 27.5724C128.223 27.826 128.223 28.0978 128.223 28.4057C128.223 28.5507 128.237 28.6956 128.265 28.8405C128.293 28.9854 128.334 29.0941 128.376 29.221C128.432 29.3478 128.502 29.4565 128.572 29.547C128.656 29.6557 128.754 29.7463 128.851 29.8369C128.935 29.9094 129.033 29.9637 129.145 29.9999C129.257 30.0543 129.382 30.0905 129.522 30.1268C129.662 30.163 129.829 30.1811 129.997 30.1992C130.179 30.2173 130.36 30.2173 130.57 30.2173H133.923C134.231 30.2173 134.51 30.2355 134.79 30.2717C135.069 30.3079 135.321 30.3623 135.572 30.4528C135.824 30.5253 136.047 30.634 136.271 30.7608C136.466 30.8695 136.648 30.9963 136.83 31.1412L136.871 31.1775C137.053 31.3405 137.221 31.5217 137.36 31.7028C137.5 31.884 137.612 32.1014 137.71 32.3369C137.808 32.5724 137.877 32.8079 137.919 33.0615C137.975 33.3333 137.989 33.605 137.989 33.8768Z" fill="#424242"/>
<path fill-rule="evenodd" clip-rule="evenodd" d="M15.4392 111.667L15.7466 108.714H23.9902L23.6828 111.667H20.8744L19.8125 121.848H17.1997L18.2616 111.667H15.4392ZM24.3115 119.112L25.0241 112.337H27.3575L26.7846 117.844C26.7287 118.406 26.7846 118.804 26.9663 119.04C27.1479 119.275 27.4413 119.402 27.8325 119.402C28.3914 119.402 28.8804 119.094 29.3275 118.478L29.9703 112.337H32.3036L31.3116 121.848H28.9782L29.104 120.707C28.7966 121.105 28.4194 121.431 27.9722 121.685C27.5112 121.957 26.9942 122.083 26.4213 122.083C25.6249 122.083 25.0521 121.812 24.7028 121.268C24.3395 120.743 24.2137 120.018 24.3115 119.112ZM33.2398 117.083C33.3934 115.562 33.8266 114.348 34.5252 113.442C35.2238 112.554 36.0482 112.102 36.9843 112.102C37.9204 112.102 38.5492 112.554 39.0242 113.46L39.5133 108.714H41.8466L40.4773 121.848H38.144L38.2558 120.743C37.5572 121.631 36.7887 122.083 35.9364 122.083C35.0003 122.083 34.2737 121.631 33.7567 120.743C33.2537 119.873 33.0721 118.641 33.2398 117.083ZM36.2438 115.417C35.8945 115.833 35.6849 116.395 35.615 117.083C35.5452 117.79 35.629 118.352 35.8945 118.768C36.1599 119.185 36.5092 119.402 36.9843 119.402C37.2358 119.402 37.5152 119.312 37.7947 119.149C38.0741 118.986 38.3117 118.768 38.4793 118.533L38.7867 115.616C38.661 115.362 38.4793 115.163 38.2278 115C37.9763 114.837 37.7248 114.765 37.4594 114.765C36.9983 114.783 36.5931 115 36.2438 115.417ZM42.4055 117.083C42.4754 116.413 42.6291 115.779 42.8806 115.181C43.1321 114.583 43.4394 114.058 43.8167 113.605C44.1939 113.152 44.655 112.79 45.186 112.518C45.7169 112.246 46.2898 112.12 46.8906 112.12C47.701 112.12 48.3996 112.355 48.9585 112.808C49.5313 113.261 49.9225 113.877 50.1601 114.62C50.3976 115.362 50.4674 116.196 50.3696 117.102C50.2718 118.007 50.0343 118.841 49.6431 119.583C49.2519 120.326 48.7209 120.942 48.0642 121.413C47.4075 121.884 46.667 122.102 45.8427 122.102C45.0323 122.102 44.3616 121.866 43.7887 121.413C43.2299 120.942 42.8247 120.344 42.6011 119.583C42.3776 118.823 42.3077 117.989 42.4055 117.083ZM44.7947 117.083C44.7249 117.736 44.8087 118.297 45.0462 118.732C45.2838 119.185 45.647 119.402 46.1361 119.402C46.6251 119.402 47.0582 119.185 47.3936 118.732C47.7289 118.279 47.9245 117.736 47.9944 117.065C48.0642 116.413 47.9804 115.87 47.7289 115.417C47.4914 114.982 47.1141 114.765 46.6111 114.765C46.1081 114.765 45.7169 114.982 45.3816 115.417C45.0602 115.888 44.8506 116.431 44.7947 117.083ZM55.0084 125.471L56.3777 112.337H58.711L58.5992 113.442C59.2699 112.554 60.0384 112.102 60.9047 112.102C61.8548 112.102 62.5813 112.536 63.0843 113.424C63.5873 114.312 63.769 115.525 63.6013 117.083C63.4336 118.659 63.0145 119.873 62.3158 120.761C61.6312 121.649 60.8069 122.083 59.8567 122.083C59.0044 122.083 58.3198 121.631 57.8308 120.725L57.3418 125.471H55.0084ZM58.0823 118.551C58.208 118.786 58.3897 119.004 58.6272 119.167C58.8647 119.33 59.1302 119.42 59.3817 119.42C59.8428 119.42 60.248 119.203 60.5973 118.786C60.9466 118.37 61.1562 117.79 61.226 117.102C61.2959 116.413 61.1981 115.852 60.9466 115.435C60.6811 115.018 60.3178 114.801 59.8567 114.801C59.6052 114.801 59.3258 114.891 59.0464 115.054C58.7669 115.217 58.5434 115.435 58.3757 115.67L58.0823 118.551ZM64.3698 118.967C64.4256 118.424 64.5514 117.935 64.747 117.518C64.9426 117.102 65.1801 116.794 65.4596 116.558C65.739 116.323 66.0185 116.159 66.3259 116.051C66.6333 115.942 66.9127 115.888 67.2201 115.888C67.7091 115.888 68.1422 115.978 68.5195 116.196C68.8967 116.395 69.1902 116.667 69.3718 117.011L69.4696 116.069C69.5115 115.652 69.4137 115.308 69.1762 115.054C68.9387 114.801 68.5894 114.674 68.1283 114.674C67.3877 114.674 66.6612 115.018 65.9626 115.707L65.3059 113.605C65.8089 113.098 66.3678 112.736 66.9826 112.482C67.5973 112.246 68.1981 112.12 68.7989 112.12C69.1762 112.12 69.5115 112.156 69.8189 112.228C70.1263 112.301 70.4197 112.428 70.6992 112.609C70.9786 112.79 71.2021 113.025 71.3838 113.297C71.5654 113.587 71.6912 113.949 71.775 114.384C71.8588 114.837 71.8588 115.344 71.803 115.906L71.1882 121.848H68.8548L68.9526 120.906C68.6872 121.268 68.3379 121.558 67.9047 121.757C67.4716 121.975 67.0245 122.083 66.5494 122.083C66.256 122.083 65.9766 122.011 65.6971 121.884C65.4177 121.757 65.1662 121.558 64.9426 121.323C64.7191 121.069 64.5514 120.743 64.4396 120.326C64.3418 119.928 64.3139 119.475 64.3698 118.967ZM67.1223 118.188C66.8708 118.388 66.745 118.641 66.7031 119.004C66.6612 119.348 66.745 119.62 66.9546 119.819C67.1642 120.018 67.4157 120.109 67.751 120.109C68.0165 120.109 68.282 120.054 68.5335 119.928C68.785 119.801 68.9806 119.638 69.1203 119.42L69.2041 118.587C69.1063 118.37 68.9526 118.207 68.7151 118.098C68.4915 117.989 68.24 117.935 67.9746 117.935C67.6532 117.899 67.3598 117.989 67.1223 118.188ZM73.0884 121.866L74.0804 112.355H76.4277L76.302 113.515C76.5954 113.116 76.9727 112.79 77.4337 112.5C77.8948 112.228 78.328 112.083 78.7471 112.083L78.4397 115C78.328 114.946 78.1323 114.928 77.8808 114.928C77.5595 114.928 77.2242 115 76.8609 115.163C76.4976 115.326 76.2461 115.525 76.0645 115.797L75.4357 121.866H73.0884ZM78.817 118.967C78.8729 118.424 78.9986 117.935 79.1942 117.518C79.3898 117.102 79.6274 116.794 79.9068 116.558C80.1863 116.323 80.4657 116.159 80.7731 116.051C81.0665 115.942 81.3599 115.888 81.6673 115.888C82.1563 115.888 82.5895 115.978 82.9667 116.196C83.344 116.395 83.6374 116.667 83.819 117.011L83.9168 116.069C83.9587 115.652 83.8609 115.308 83.6234 115.054C83.3859 114.801 83.0366 114.674 82.5755 114.674C81.835 114.674 81.1084 115.018 80.4098 115.707L79.7531 113.605C80.2561 113.098 80.815 112.736 81.4158 112.482C82.0306 112.246 82.6314 112.12 83.2322 112.12C83.6094 112.12 83.9448 112.156 84.2522 112.228C84.5595 112.301 84.853 112.428 85.1324 112.609C85.4118 112.79 85.6354 113.025 85.817 113.297C85.9987 113.587 86.1244 113.949 86.2083 114.384C86.2921 114.837 86.2921 115.344 86.2362 115.906L85.6214 121.848H83.2881L83.3859 120.906C83.1204 121.268 82.7711 121.558 82.338 121.757C81.9048 121.975 81.4577 122.083 80.9827 122.083C80.6892 122.083 80.4098 122.011 80.1304 121.884C79.8509 121.757 79.5994 121.558 79.3759 121.323C79.1523 121.069 78.9846 120.743 78.8729 120.326C78.789 119.928 78.7611 119.475 78.817 118.967ZM81.5695 118.188C81.318 118.388 81.1923 118.641 81.1503 119.004C81.1084 119.348 81.1922 119.62 81.4018 119.819C81.6114 120.018 81.8629 120.109 82.1982 120.109C82.4637 120.109 82.7292 120.054 82.9807 119.928C83.2322 119.801 83.4278 119.638 83.5675 119.42L83.6514 118.587C83.5536 118.37 83.3999 118.207 83.1623 118.098C82.9388 117.989 82.6873 117.935 82.4218 117.935C82.1004 117.917 81.821 118.007 81.5695 118.188ZM91.853 115.308C91.9927 113.986 92.356 112.808 92.9428 111.757C93.5297 110.725 94.2702 109.909 95.1644 109.348C96.0586 108.786 97.0227 108.496 98.0567 108.496C98.6435 108.496 99.1744 108.587 99.6495 108.804C100.125 109.004 100.516 109.275 100.837 109.62C101.158 109.964 101.41 110.344 101.62 110.725C101.829 111.123 101.997 111.54 102.123 112.011L99.7194 113.406C99.5936 112.862 99.37 112.409 99.0068 112.047C98.6435 111.685 98.2383 111.504 97.7633 111.504C96.9389 111.504 96.2263 111.866 95.6255 112.591C95.0247 113.315 94.6614 114.221 94.5357 115.308C94.4239 116.395 94.5916 117.301 95.0526 118.025C95.5137 118.75 96.1425 119.112 96.9668 119.112C97.4419 119.112 97.903 118.931 98.3361 118.569C98.7692 118.207 99.1046 117.754 99.3421 117.21L101.452 118.587C101.27 118.949 101.089 119.275 100.879 119.602C100.669 119.928 100.418 120.236 100.125 120.544C99.8311 120.852 99.5098 121.123 99.1744 121.359C98.8391 121.576 98.4619 121.775 98.0287 121.902C97.5956 122.047 97.1345 122.12 96.6734 122.12C95.6395 122.12 94.7313 121.83 93.9628 121.268C93.1943 120.707 92.6215 119.891 92.2442 118.859C91.8251 117.808 91.7133 116.612 91.853 115.308ZM102.36 117.102C102.43 116.431 102.584 115.797 102.835 115.199C103.087 114.602 103.394 114.076 103.771 113.623C104.149 113.17 104.61 112.808 105.141 112.536C105.671 112.265 106.244 112.138 106.845 112.138C107.656 112.138 108.354 112.373 108.913 112.826C109.486 113.279 109.877 113.895 110.115 114.638C110.352 115.381 110.422 116.214 110.324 117.12C110.226 118.025 109.989 118.859 109.598 119.602C109.206 120.344 108.676 120.96 108.019 121.431C107.362 121.902 106.622 122.12 105.797 122.12C104.987 122.12 104.316 121.884 103.743 121.431C103.184 120.96 102.779 120.362 102.556 119.602C102.318 118.823 102.262 118.007 102.36 117.102ZM104.735 117.102C104.665 117.754 104.749 118.315 104.987 118.75C105.224 119.203 105.588 119.42 106.077 119.42C106.566 119.42 106.999 119.203 107.334 118.75C107.67 118.297 107.865 117.754 107.935 117.083C108.005 116.431 107.921 115.888 107.67 115.435C107.432 115 107.055 114.783 106.552 114.783C106.049 114.783 105.658 115 105.322 115.435C105.001 115.888 104.805 116.431 104.735 117.102ZM111.26 121.866L112.252 112.355H114.586L114.46 113.515C114.753 113.134 115.131 112.79 115.592 112.518C116.053 112.246 116.584 112.102 117.157 112.102C117.953 112.102 118.526 112.373 118.875 112.917C119.225 113.46 119.35 114.203 119.252 115.109L118.554 121.83H116.22L116.793 116.341C116.905 115.29 116.556 114.765 115.759 114.765C115.201 114.765 114.684 115.073 114.236 115.688L113.594 121.83L111.26 121.866ZM119.979 120.616L121.181 118.46C121.432 118.804 121.795 119.094 122.284 119.348C122.759 119.602 123.221 119.746 123.64 119.746C124.296 119.746 124.646 119.529 124.702 119.076C124.716 118.931 124.674 118.823 124.548 118.732C124.436 118.641 124.282 118.569 124.087 118.533C123.891 118.478 123.668 118.442 123.416 118.37C123.165 118.315 122.913 118.243 122.648 118.17C122.382 118.098 122.145 117.989 121.893 117.844C121.656 117.699 121.446 117.518 121.264 117.319C121.083 117.12 120.957 116.83 120.873 116.486C120.789 116.141 120.775 115.725 120.817 115.272C120.915 114.402 121.264 113.659 121.893 113.044C122.522 112.446 123.318 112.138 124.282 112.138C125.442 112.138 126.42 112.554 127.217 113.388L126.099 115.544C125.889 115.254 125.61 115 125.247 114.801C124.869 114.602 124.478 114.493 124.059 114.493C123.793 114.493 123.556 114.547 123.388 114.674C123.207 114.801 123.109 114.946 123.081 115.145C123.067 115.272 123.123 115.362 123.235 115.453C123.346 115.544 123.5 115.598 123.696 115.634C123.891 115.67 124.115 115.725 124.366 115.797C124.618 115.87 124.869 115.924 125.121 115.996C125.386 116.069 125.624 116.178 125.861 116.341C126.099 116.504 126.308 116.685 126.49 116.884C126.672 117.102 126.797 117.373 126.881 117.736C126.965 118.098 126.979 118.515 126.937 118.986C126.839 119.909 126.462 120.652 125.805 121.232C125.149 121.812 124.31 122.102 123.276 122.102C122.62 122.102 121.991 121.975 121.39 121.703C120.775 121.431 120.314 121.069 119.979 120.616ZM127.999 114.964L128.278 112.337H129.494L129.773 109.746H132.107L131.827 112.337H133.294L133.015 114.964H131.548L131.185 118.46C131.157 118.75 131.185 118.967 131.282 119.149C131.38 119.33 131.52 119.42 131.716 119.42C131.841 119.42 131.967 119.402 132.079 119.348C132.205 119.294 132.288 119.239 132.33 119.185L132.54 121.467C132.149 121.884 131.548 122.102 130.738 122.102C129.997 122.102 129.452 121.866 129.103 121.395C128.767 120.924 128.642 120.217 128.74 119.312L129.187 114.982L127.999 114.964ZM133.672 121.866L134.664 112.355H136.997L136.871 113.515C137.165 113.116 137.542 112.79 138.003 112.5C138.464 112.228 138.897 112.083 139.316 112.083L139.009 115C138.897 114.946 138.702 114.928 138.45 114.928C138.129 114.928 137.794 115 137.43 115.163C137.067 115.326 136.815 115.525 136.634 115.797L136.005 121.866H133.672ZM139.847 119.112L140.56 112.337H142.893L142.321 117.844C142.265 118.406 142.321 118.804 142.502 119.04C142.684 119.275 142.977 119.402 143.368 119.402C143.927 119.402 144.416 119.094 144.863 118.478L145.506 112.337H147.84L146.847 121.848H144.514L144.64 120.707C144.332 121.105 143.955 121.431 143.494 121.685C143.033 121.957 142.516 122.083 141.943 122.083C141.147 122.083 140.574 121.812 140.225 121.268C139.875 120.743 139.75 120.018 139.847 119.112ZM148.776 117.083C148.873 116.105 149.139 115.254 149.572 114.493C149.991 113.732 150.536 113.152 151.193 112.736C151.85 112.319 152.548 112.12 153.303 112.12C154.057 112.12 154.63 112.283 155.105 112.627C155.58 112.971 155.915 113.388 156.111 113.877L154.406 115.707C154.155 115.109 153.722 114.801 153.121 114.801C152.618 114.801 152.185 115 151.822 115.417C151.458 115.833 151.235 116.395 151.165 117.102C151.095 117.808 151.193 118.37 151.472 118.786C151.752 119.203 152.143 119.42 152.632 119.42C153.219 119.42 153.708 119.112 154.113 118.496L155.426 120.344C155.161 120.779 154.798 121.159 154.337 121.467C153.875 121.794 153.345 121.975 152.73 122.047L152.422 122.772C152.604 122.645 152.772 122.573 152.953 122.573C153.247 122.573 153.47 122.699 153.638 122.971C153.82 123.243 153.875 123.587 153.834 123.986C153.778 124.511 153.568 124.928 153.205 125.236C152.842 125.544 152.408 125.707 151.905 125.707C151.542 125.707 151.221 125.652 150.913 125.525C150.62 125.399 150.396 125.254 150.243 125.073L150.788 123.931C151.165 124.33 151.556 124.511 151.975 124.511C152.171 124.511 152.353 124.457 152.492 124.366C152.646 124.275 152.73 124.131 152.744 123.949C152.772 123.659 152.66 123.515 152.408 123.515C152.227 123.515 152.073 123.605 151.933 123.768L151.207 123.17L151.64 122.029C150.648 121.866 149.879 121.341 149.335 120.453C148.832 119.565 148.636 118.442 148.776 117.083ZM156.363 118.967C156.418 118.424 156.544 117.935 156.74 117.518C156.935 117.102 157.173 116.794 157.452 116.558C157.732 116.323 158.011 116.159 158.305 116.051C158.598 115.942 158.892 115.888 159.199 115.888C159.688 115.888 160.135 115.978 160.512 116.196C160.89 116.395 161.183 116.667 161.365 117.029L161.462 116.087C161.504 115.67 161.406 115.326 161.183 115.073C160.945 114.819 160.596 114.692 160.135 114.692C159.395 114.692 158.668 115.036 157.969 115.725L157.327 113.623C157.83 113.116 158.389 112.754 159.003 112.5C159.604 112.265 160.219 112.138 160.82 112.138C161.197 112.138 161.532 112.174 161.84 112.246C162.147 112.319 162.44 112.446 162.72 112.627C162.999 112.808 163.223 113.044 163.405 113.315C163.586 113.605 163.712 113.967 163.796 114.402C163.88 114.855 163.88 115.362 163.824 115.924L163.209 121.866H160.876L160.973 120.924C160.708 121.286 160.359 121.558 159.925 121.775C159.492 121.993 159.045 122.102 158.57 122.102C158.277 122.102 157.997 122.029 157.718 121.902C157.438 121.775 157.187 121.576 156.963 121.341C156.74 121.087 156.572 120.761 156.46 120.344C156.349 119.946 156.307 119.475 156.363 118.967ZM158.458 110.833C158.64 109.076 159.311 108.188 160.442 108.188C160.666 108.188 160.848 108.243 161.029 108.352C161.197 108.46 161.337 108.587 161.42 108.732C161.504 108.859 161.616 108.986 161.714 109.112C161.826 109.221 161.923 109.275 162.035 109.275C162.161 109.275 162.287 109.203 162.385 109.04C162.482 108.877 162.552 108.641 162.594 108.315H163.782C163.684 109.185 163.474 109.837 163.139 110.29C162.804 110.743 162.357 110.96 161.798 110.96C161.574 110.96 161.393 110.906 161.211 110.797C161.029 110.688 160.903 110.562 160.82 110.417C160.736 110.29 160.624 110.163 160.526 110.036C160.414 109.928 160.317 109.873 160.205 109.873C160.079 109.873 159.953 109.964 159.856 110.109C159.758 110.254 159.688 110.507 159.646 110.833H158.458ZM159.129 118.188C158.878 118.388 158.752 118.641 158.71 119.004C158.668 119.348 158.752 119.62 158.961 119.819C159.171 120.018 159.422 120.109 159.758 120.109C160.023 120.109 160.289 120.054 160.54 119.928C160.792 119.801 160.987 119.638 161.127 119.42L161.211 118.587C161.113 118.37 160.959 118.207 160.722 118.098C160.498 117.989 160.247 117.935 159.981 117.935C159.66 117.917 159.367 118.007 159.129 118.188ZM165.123 117.102C165.193 116.431 165.347 115.797 165.598 115.199C165.85 114.602 166.157 114.076 166.534 113.623C166.912 113.17 167.373 112.808 167.904 112.536C168.434 112.265 169.007 112.138 169.608 112.138C170.419 112.138 171.117 112.373 171.676 112.826C172.249 113.279 172.64 113.895 172.878 114.638C173.115 115.381 173.185 116.214 173.087 117.12C172.989 118.025 172.752 118.859 172.361 119.602C171.969 120.344 171.439 120.96 170.782 121.431C170.125 121.902 169.385 122.12 168.56 122.12C167.736 122.12 167.079 121.884 166.506 121.431C165.947 120.96 165.542 120.362 165.319 119.602C165.095 118.823 165.025 118.007 165.123 117.102ZM167.512 117.102C167.442 117.754 167.526 118.315 167.764 118.75C168.001 119.203 168.365 119.42 168.854 119.42C169.343 119.42 169.776 119.203 170.111 118.75C170.446 118.297 170.642 117.754 170.712 117.083C170.782 116.431 170.698 115.888 170.446 115.435C170.209 115 169.832 114.783 169.329 114.783C168.826 114.783 168.434 115 168.099 115.435C167.778 115.888 167.568 116.431 167.512 117.102ZM177.95 118.967C178.005 118.424 178.131 117.935 178.327 117.518C178.522 117.102 178.76 116.794 179.039 116.558C179.319 116.323 179.598 116.159 179.906 116.051C180.213 115.942 180.492 115.888 180.8 115.888C181.289 115.888 181.722 115.978 182.099 116.196C182.477 116.395 182.77 116.667 182.952 117.011L183.049 116.069C183.091 115.652 182.993 115.308 182.756 115.054C182.518 114.801 182.169 114.674 181.708 114.674C180.968 114.674 180.241 115.018 179.542 115.707L178.886 113.605C179.389 113.098 179.948 112.736 180.548 112.482C181.163 112.246 181.764 112.12 182.365 112.12C182.742 112.12 183.077 112.156 183.385 112.228C183.692 112.301 183.986 112.428 184.265 112.609C184.544 112.79 184.768 113.025 184.95 113.297C185.131 113.587 185.257 113.949 185.341 114.384C185.425 114.837 185.425 115.344 185.369 115.906L184.754 121.848H182.421L182.518 120.906C182.253 121.268 181.904 121.558 181.471 121.757C181.037 121.975 180.59 122.083 180.115 122.083C179.822 122.083 179.542 122.011 179.263 121.884C178.983 121.757 178.732 121.558 178.508 121.323C178.285 121.069 178.117 120.743 178.005 120.326C177.922 119.946 177.894 119.475 177.95 118.967ZM180.702 118.188C180.451 118.388 180.325 118.641 180.283 119.004C180.241 119.348 180.325 119.62 180.534 119.819C180.744 120.018 180.995 120.109 181.331 120.109C181.596 120.109 181.862 120.054 182.113 119.928C182.365 119.801 182.56 119.638 182.7 119.42L182.784 118.587C182.686 118.37 182.532 118.207 182.295 118.098C182.071 117.989 181.82 117.935 181.554 117.935C181.233 117.917 180.954 118.007 180.702 118.188ZM190.287 120.018L191.95 117.391C192.299 117.899 192.718 118.315 193.249 118.641C193.766 118.967 194.367 119.13 195.024 119.13C195.471 119.13 195.834 119.04 196.099 118.859C196.379 118.678 196.533 118.424 196.56 118.098C196.574 117.917 196.533 117.754 196.407 117.627C196.295 117.5 196.127 117.391 195.904 117.319C195.694 117.246 195.443 117.156 195.163 117.083C194.884 116.993 194.604 116.902 194.297 116.794C193.99 116.685 193.696 116.576 193.375 116.467C193.067 116.359 192.774 116.196 192.509 115.996C192.243 115.779 192.02 115.544 191.824 115.272C191.628 115 191.489 114.638 191.405 114.203C191.321 113.768 191.307 113.279 191.363 112.736C191.419 112.174 191.572 111.649 191.796 111.159C192.02 110.67 192.327 110.217 192.704 109.837C193.081 109.438 193.529 109.149 194.073 108.913C194.618 108.678 195.205 108.569 195.834 108.569C197.497 108.569 198.796 109.185 199.76 110.399L198.069 112.935C197.706 112.482 197.273 112.138 196.77 111.902C196.267 111.667 195.764 111.558 195.247 111.558C194.521 111.558 194.129 111.866 194.059 112.482C194.045 112.663 194.087 112.808 194.213 112.935C194.325 113.062 194.493 113.17 194.702 113.243C194.912 113.315 195.163 113.406 195.429 113.496C195.708 113.587 195.988 113.696 196.295 113.804C196.602 113.913 196.896 114.022 197.217 114.131C197.525 114.239 197.818 114.402 198.083 114.602C198.349 114.801 198.572 115.054 198.768 115.326C198.964 115.598 199.103 115.942 199.187 116.359C199.271 116.775 199.299 117.246 199.243 117.754C199.103 119.094 198.628 120.163 197.804 120.96C196.98 121.757 195.904 122.156 194.562 122.156C192.718 122.102 191.293 121.413 190.287 120.018ZM200.179 117.102C200.277 116.178 200.529 115.344 200.934 114.602C201.339 113.841 201.87 113.243 202.499 112.808C203.141 112.355 203.84 112.138 204.58 112.138C205.684 112.138 206.537 112.627 207.137 113.587C207.738 114.547 207.948 115.833 207.78 117.428L207.71 118.116H202.485C202.527 118.569 202.694 118.949 202.974 119.239C203.267 119.529 203.658 119.674 204.161 119.674C204.441 119.674 204.762 119.602 205.139 119.438C205.517 119.294 205.81 119.094 206.034 118.859L206.844 120.852C206.453 121.268 205.964 121.576 205.391 121.794C204.818 122.011 204.231 122.12 203.644 122.12C202.89 122.12 202.233 121.92 201.674 121.522C201.115 121.123 200.696 120.544 200.431 119.765C200.165 118.986 200.081 118.098 200.179 117.102ZM202.68 116.033H205.698C205.698 115.634 205.6 115.29 205.391 115C205.181 114.71 204.818 114.565 204.329 114.565C203.84 114.565 203.491 114.71 203.225 115C202.96 115.272 202.778 115.634 202.68 116.033ZM208.702 117.102C208.8 116.123 209.066 115.254 209.499 114.511C209.918 113.75 210.463 113.17 211.119 112.754C211.776 112.337 212.475 112.138 213.229 112.138C213.984 112.138 214.557 112.301 215.032 112.645C215.507 112.989 215.842 113.406 216.038 113.895L214.333 115.725C214.082 115.127 213.648 114.819 213.048 114.819C212.545 114.819 212.112 115.018 211.748 115.435C211.385 115.852 211.161 116.413 211.092 117.12C211.022 117.826 211.119 118.388 211.399 118.804C211.678 119.221 212.07 119.438 212.559 119.438C213.145 119.438 213.648 119.131 214.04 118.515L215.353 120.362C215.046 120.852 214.626 121.268 214.082 121.612C213.537 121.957 212.908 122.12 212.167 122.12C211.008 122.12 210.1 121.649 209.443 120.725C208.786 119.783 208.549 118.587 208.702 117.102ZM216.485 117.102C216.555 116.431 216.708 115.797 216.96 115.199C217.211 114.602 217.519 114.076 217.896 113.623C218.273 113.17 218.734 112.808 219.265 112.536C219.796 112.265 220.369 112.138 220.97 112.138C221.78 112.138 222.479 112.373 223.038 112.826C223.611 113.279 224.002 113.895 224.239 114.638C224.477 115.381 224.547 116.214 224.449 117.12C224.351 118.025 224.114 118.859 223.722 119.602C223.331 120.344 222.8 120.96 222.144 121.431C221.487 121.902 220.746 122.12 219.922 122.12C219.098 122.12 218.441 121.884 217.868 121.431C217.309 120.96 216.904 120.362 216.68 119.602C216.457 118.841 216.387 118.007 216.485 117.102ZM218.874 117.102C218.804 117.754 218.888 118.315 219.126 118.75C219.363 119.203 219.726 119.42 220.215 119.42C220.704 119.42 221.138 119.203 221.473 118.75C221.808 118.297 222.004 117.754 222.074 117.083C222.144 116.431 222.06 115.888 221.808 115.435C221.571 115 221.193 114.783 220.69 114.783C220.187 114.783 219.796 115 219.461 115.435C219.139 115.906 218.944 116.449 218.874 117.102Z" fill="white"/>
</svg>
