<svg width="104" height="73" viewBox="0 0 104 73" fill="none" xmlns="http://www.w3.org/2000/svg">
<circle cx="56.7781" cy="18.3218" r="12.6843" fill="#F5B426"/>
<path d="M38.8967 5.272C38.8967 5.29402 38.9671 5.41734 39.0508 5.54947C39.1301 5.68159 39.1918 5.79611 39.1829 5.80491C39.1785 5.81372 38.9803 5.70362 38.7469 5.55828C38.3241 5.29842 38.3197 5.29842 38.0907 5.33806C37.6767 5.40413 37.0909 5.55828 37.1129 5.58911C37.1217 5.60672 37.2451 5.64636 37.386 5.68159C37.7251 5.75647 38.2889 5.95466 38.8306 6.18809C40.6936 6.99847 42.3893 8.34178 43.8515 10.1607C44.2919 10.7157 44.9525 11.6714 44.8909 11.6714C44.8689 11.6714 44.8116 11.6274 44.7676 11.5701C44.6178 11.3807 43.9968 10.8302 43.5652 10.5043C43.1072 10.1563 42.5919 9.81281 42.5654 9.83483C42.561 9.84364 42.583 9.95815 42.6139 10.0903C42.6491 10.2224 42.6711 10.3325 42.6667 10.3413C42.6579 10.3457 42.4685 10.1387 42.2395 9.87887C42.0061 9.61462 41.755 9.36798 41.667 9.32834C41.4732 9.23144 40.905 9.02885 40.8874 9.05087C40.8786 9.05968 40.9535 9.25787 41.0504 9.4957C41.1473 9.73353 41.2221 9.93173 41.2133 9.94053C41.2089 9.94934 40.9138 9.70711 40.5659 9.40761C39.9317 8.86589 39.9273 8.86149 39.6674 8.83946C39.5221 8.82185 39.2666 8.82625 39.1037 8.84387L38.8042 8.8747L39.227 9.37679C39.4736 9.66306 39.619 9.86126 39.5705 9.84804C39.5221 9.83043 39.1037 9.66306 38.6368 9.46928C37.8132 9.13015 37.7868 9.12574 37.6282 9.17859C37.3816 9.26668 37.223 9.34596 37.223 9.38119C37.223 9.39881 37.386 9.52653 37.5886 9.66747C37.7868 9.81281 37.9586 9.93173 37.9674 9.94053C38.0334 9.98898 37.8749 9.97577 37.3331 9.88328C36.994 9.82602 36.6593 9.78198 36.5888 9.77757C36.5051 9.77757 36.3554 9.85245 36.1396 10.0066C35.959 10.1343 35.8137 10.2488 35.8137 10.262C35.8137 10.2753 35.9326 10.3325 36.0779 10.3898C36.2277 10.4514 36.3554 10.5131 36.3642 10.5307C36.3774 10.5483 36.1924 10.5747 35.959 10.5924C35.7212 10.6056 35.4833 10.6276 35.4305 10.6408C35.338 10.6584 34.673 11.3719 34.5761 11.5525C34.532 11.6274 34.5364 11.6274 34.6553 11.5701C34.8535 11.4644 35.8533 11.1561 36.3025 11.0592C37.2186 10.8654 37.7251 10.817 38.8526 10.817C40.7685 10.8214 42.376 11.1297 44.2479 11.8608L44.8204 12.0854L44.4372 12.1383C44.2258 12.1691 43.8779 12.2352 43.6665 12.288C42.9486 12.4554 41.7198 12.887 41.7903 12.9487C41.8079 12.9663 41.918 13.0147 42.0369 13.0588C42.1514 13.1028 42.2395 13.1424 42.2351 13.1513C42.2263 13.1557 41.9356 13.1953 41.5833 13.2349L40.9491 13.3098L40.5747 13.5609C40.3721 13.6974 40.1959 13.8295 40.1871 13.8559C40.1783 13.8824 40.3809 13.9484 40.6364 14.0057C40.8918 14.0585 41.0944 14.1114 41.0856 14.1202C41.0768 14.129 40.7068 14.2347 40.2576 14.3492L39.4472 14.565L39.2798 14.7808C39.0993 15.0143 38.835 15.4547 38.857 15.4767C38.8658 15.4855 39.1433 15.4635 39.4692 15.4283C39.7951 15.3974 40.077 15.3754 40.0946 15.3842C40.1122 15.3886 39.7599 15.6265 39.3107 15.9171C38.8658 16.2034 38.4871 16.4589 38.4694 16.4853C38.4342 16.547 38.3241 17.0623 38.3461 17.0843C38.3593 17.0931 38.5663 17.027 38.813 16.9389C39.064 16.8553 39.271 16.7848 39.2754 16.7936C39.2798 16.798 39.0464 17.049 38.7601 17.3529C38.1876 17.9563 38.2096 17.9035 38.2624 18.4628L38.2933 18.7535L38.5707 18.5817C38.7249 18.4892 38.8526 18.4188 38.8526 18.432C38.8526 18.4408 38.7381 18.639 38.6016 18.8768L38.3549 19.304L38.4254 19.6828C38.5091 20.11 38.6324 20.5416 38.6588 20.5108C38.672 20.502 38.7381 20.273 38.813 19.9999C39.5089 17.3926 41.3763 14.8645 44.0056 12.9707C44.4857 12.6271 45.0098 12.288 45.0671 12.288C45.0803 12.288 45.1067 12.5082 45.1243 12.7813C45.1904 13.8956 45.437 15.0627 45.9347 16.6703C46.08 17.1283 46.3267 17.9343 46.4896 18.454C47.0754 20.3346 47.2472 21.1538 47.3969 22.8142C47.5555 24.6068 47.6392 25.9457 47.7272 28.1875L47.7537 28.8261L47.3881 29.0463C45.6925 30.0769 44.424 31.5567 43.8955 33.1423C43.7634 33.5254 43.6092 34.2742 43.6092 34.5076V34.6573L44.5474 34.2037C46.7759 33.1203 49.0045 32.3583 51.1846 31.9355C52.6733 31.6492 53.3427 31.5788 54.9282 31.5479C56.4213 31.5215 57.1964 31.5744 58.3063 31.7814C60.3763 32.1601 61.8165 32.7283 63.7808 33.9439C64.9568 34.6706 64.8511 34.6221 64.8159 34.3667C64.6573 33.248 64.2829 32.3143 63.6047 31.3585C63.0145 30.5349 61.9751 29.6012 60.9841 29.0023C60.5877 28.76 59.4294 28.1875 59.3457 28.1875C59.2753 28.1875 59.2621 28.28 59.4382 27.3198C59.7421 25.6682 59.7862 25.1529 59.7906 23.5189C59.795 22.7085 59.7774 21.4974 59.7553 20.8323C59.7289 19.9735 59.7333 19.5022 59.7685 19.2115C59.8214 18.7755 60.0152 18.1017 60.0813 18.1017C60.1077 18.1017 60.2971 18.3131 60.5085 18.5685C61.7373 20.0528 62.4772 21.5238 62.8427 23.2106C62.9308 23.6114 62.9572 23.9021 62.9793 24.62L63.0101 25.5229L63.1686 25.2586C63.521 24.6773 63.521 24.6773 63.4285 24.3073C63.3096 23.8492 63.3184 23.8228 63.5122 24.0474L63.684 24.2456L63.728 24.1311C63.7544 24.0695 63.8029 23.9197 63.8381 23.7964L63.9042 23.5762L63.6443 23.0785C63.499 22.8054 63.3889 22.572 63.3977 22.5676C63.4065 22.5588 63.5386 22.6381 63.6928 22.7482C63.8469 22.8583 63.9923 22.9464 64.0099 22.9464C64.0275 22.9464 64.0451 22.8319 64.0451 22.6909L64.0407 22.4399L63.5562 21.8717C63.292 21.559 63.0806 21.2992 63.0894 21.2904C63.0982 21.2816 63.3008 21.352 63.5342 21.4533C63.772 21.5502 63.9746 21.6251 63.9834 21.6163C64.0099 21.5854 63.8249 20.9512 63.7676 20.8676C63.7368 20.8235 63.4593 20.6297 63.1422 20.4359L62.5697 20.0792L62.9837 20.11L63.3977 20.1408L63.1995 19.881C62.9264 19.5286 62.8956 19.5066 62.4067 19.3084C62.1689 19.2159 61.9751 19.1235 61.9751 19.1014C61.9751 19.0838 62.0676 19.0706 62.1865 19.0706L62.3935 19.0662L62.2614 18.9561C62.0147 18.7447 61.4113 18.3659 60.8652 18.0796C60.5701 17.9255 60.3631 17.7934 60.4116 17.7934C60.874 17.7934 62.3142 18.0973 63.1202 18.3615C64.763 18.9032 66.0182 19.6652 67.1237 20.7839C67.3968 21.0613 67.6126 21.2507 67.5994 21.2023C67.5861 21.1582 67.5333 20.938 67.4804 20.7134L67.3835 20.3082L67.0576 20.1056C66.8771 19.9911 66.7317 19.8898 66.7317 19.8766C66.7317 19.8634 66.8418 19.8634 66.9739 19.8722C67.1061 19.8854 67.2162 19.8854 67.2162 19.8766C67.2162 19.8678 67.1457 19.7268 67.0664 19.5595L66.9123 19.26L66.3485 19.0662C65.7275 18.8548 65.7275 18.868 66.3485 18.7843C66.4631 18.7711 66.5555 18.7403 66.5555 18.7183C66.5555 18.6962 66.4807 18.5993 66.3926 18.5069L66.2252 18.3351L65.6306 18.2778C65.3047 18.247 64.9568 18.2118 64.8599 18.1942L64.6837 18.1633L65.1462 17.996C65.4016 17.8991 65.6174 17.8154 65.6262 17.8066C65.6571 17.7846 65.4985 17.6744 65.1902 17.5115L64.8995 17.3573L64.2433 17.5071C63.8777 17.5864 63.5782 17.648 63.5694 17.6392C63.565 17.6348 63.6884 17.5247 63.8469 17.3926C64.0055 17.2648 64.1156 17.1415 64.098 17.1239C64.0759 17.1019 63.891 17.0755 63.6884 17.0623C63.3316 17.0358 63.3008 17.0402 62.8692 17.212C62.6181 17.3089 62.4155 17.375 62.4155 17.3617C62.4155 17.3485 62.4816 17.2693 62.5609 17.1856L62.7018 17.0314L62.3495 17.0623C61.8606 17.1019 61.1207 17.212 60.83 17.2869C60.6978 17.3221 60.5833 17.3397 60.5701 17.3309C60.5393 17.2957 61.6007 16.8112 62.1821 16.591C62.7723 16.3664 63.6531 16.1241 64.3314 16.0008C64.6881 15.9392 64.9964 15.9215 65.9169 15.9259C66.9607 15.9304 67.1061 15.9392 67.5597 16.0361C67.8372 16.0977 68.0486 16.1241 68.0398 16.1021C68.031 16.0757 67.868 15.9304 67.6786 15.7762L67.3351 15.4943L66.9211 15.5119C66.6965 15.5208 66.5115 15.5252 66.5115 15.5208C66.5115 15.5164 66.6128 15.4503 66.7361 15.3798L66.9651 15.2477L66.8594 15.1816C66.8022 15.1464 66.6612 15.0671 66.5467 15.0143L66.3397 14.913L65.8641 15.0583C65.6042 15.1376 65.3488 15.2125 65.3003 15.2257C65.2475 15.2389 65.3223 15.1376 65.4941 14.9614L65.776 14.6751L65.6042 14.6267C65.3223 14.5474 65.2475 14.565 64.8247 14.8117C64.0759 15.2477 63.8998 15.3402 63.935 15.2785C63.957 15.2433 64.0671 15.0715 64.186 14.8953C64.4987 14.4285 64.4987 14.4285 64.2169 14.4637C63.5518 14.5474 63.6443 14.499 63.1554 15.0451C62.9088 15.3182 62.7018 15.5384 62.693 15.5296C62.6842 15.5208 62.715 15.3666 62.7679 15.1904C62.8163 15.0143 62.8559 14.8513 62.8559 14.8293C62.8559 14.8073 62.7018 14.8733 62.5168 14.9746C62.1953 15.1464 62.1557 15.1816 61.9134 15.5516C61.7725 15.7674 61.636 15.9568 61.6183 15.97C61.5963 15.9832 61.5919 15.8995 61.6095 15.7806L61.636 15.5736L61.451 15.7189C61.1603 15.9524 60.645 16.4721 60.438 16.7451C60.2486 17.0006 60.1825 17.0578 60.231 16.9345C60.3059 16.7363 60.4424 15.9039 60.4644 15.5031L60.4908 15.0407L60.3279 15.1904C60.2398 15.2741 60.1693 15.3358 60.1693 15.3226C60.1693 15.3138 60.2398 15.0935 60.3191 14.8337C60.4028 14.5782 60.4644 14.3272 60.4556 14.2832C60.4468 14.2391 60.416 14.0806 60.3851 13.9264C60.3587 13.7767 60.3191 13.6445 60.3059 13.6357C60.2883 13.6225 60.1825 13.7546 60.0636 13.922C59.9447 14.0894 59.8434 14.2215 59.8346 14.2171C59.8302 14.2083 59.8742 13.9 59.9315 13.5344L60.0372 12.8606L59.8831 12.6095C59.6849 12.2748 59.5704 12.1339 59.5439 12.1823C59.5307 12.2043 59.4647 12.3981 59.3986 12.6183C59.3325 12.8341 59.2665 13.0323 59.2488 13.05C59.2312 13.0676 59.1564 12.7417 59.0859 12.3232L58.9582 11.5657L58.76 11.416L58.5618 11.2618L58.5309 11.4556C58.5177 11.5613 58.5001 11.7375 58.5001 11.8432C58.4957 11.9489 58.4825 12.0238 58.4649 12.0105C58.4517 11.9929 58.3372 11.7507 58.2138 11.4644L57.9892 10.9491L57.6941 10.8302C57.5356 10.7641 57.3946 10.7201 57.3814 10.7289C57.3726 10.7421 57.3814 10.8478 57.4034 10.9711C57.4255 11.0945 57.4387 11.2046 57.4299 11.2134C57.4211 11.2222 57.3066 11.0812 57.1788 10.9051C56.9983 10.654 56.919 10.5747 56.8089 10.5483C56.4741 10.4779 55.9853 10.4074 55.9897 10.4338C55.9897 10.447 56.1306 10.5703 56.298 10.7025C56.7296 11.0372 57.4695 11.8168 57.8263 12.3012C58.5442 13.2702 59.1123 14.4197 59.4823 15.6485C59.6408 16.1726 59.8787 17.1768 59.8478 17.2032C59.839 17.212 59.7553 17.049 59.6628 16.8332C59.4867 16.4236 59.2797 16.0493 58.9185 15.4811L58.6939 15.1288L58.6455 15.349C58.619 15.4723 58.5838 15.5384 58.5706 15.5031C58.5574 15.4679 58.4913 15.2785 58.4252 15.0847C58.3592 14.8909 58.2711 14.6707 58.227 14.6003C58.161 14.4902 57.7426 14.0938 57.6941 14.0938C57.6853 14.0938 57.6721 14.2479 57.6677 14.4329C57.6633 14.6179 57.6501 14.7764 57.6457 14.7852C57.6369 14.7896 57.5047 14.5562 57.3506 14.2567C57.2009 13.9616 57.0555 13.6974 57.0335 13.6666C56.985 13.6049 56.2936 13.3318 56.2627 13.3627C56.2539 13.3715 56.3024 13.5697 56.3773 13.8031C56.4521 14.0365 56.5138 14.2479 56.5138 14.2699C56.5138 14.292 56.2627 14.0629 55.9544 13.7634L55.3907 13.2173L55.1396 13.2129H54.8842L55.078 13.53C55.1881 13.7062 55.2674 13.8559 55.2586 13.8647C55.2542 13.8736 55.0251 13.7458 54.7565 13.5829L54.2676 13.2922L53.9593 13.3671C53.7919 13.4067 53.651 13.4551 53.651 13.4728C53.651 13.4904 53.7215 13.5697 53.8052 13.6533C53.8888 13.7326 53.9505 13.8075 53.9417 13.8163C53.9329 13.8295 53.7523 13.7811 53.5453 13.7194L53.1665 13.6005L52.7437 13.8075C52.5103 13.9176 52.3297 14.0189 52.3385 14.0277C52.3429 14.0365 52.6116 14.0629 52.9243 14.0894C55.2013 14.2832 57.2977 15.2917 59.3545 17.19C59.4999 17.3221 59.6056 17.4454 59.5924 17.4586C59.5792 17.4719 59.4691 17.4542 59.3501 17.419C58.8745 17.2781 57.1744 17.1019 57.1744 17.1944C57.1744 17.212 57.2361 17.2781 57.3066 17.3397C57.3814 17.4014 57.4343 17.463 57.4211 17.4719C57.4123 17.4807 57.192 17.4322 56.9322 17.3573L56.4609 17.2208L56.1218 17.2913C55.9368 17.3309 55.7695 17.375 55.7474 17.397C55.7298 17.4146 55.8487 17.5247 56.0117 17.6348C56.2892 17.8198 56.3024 17.8374 56.1835 17.8374C56.1086 17.8374 55.8531 17.8066 55.6109 17.7713C55.3687 17.7361 55.1176 17.7053 55.056 17.7053C54.915 17.7053 54.2368 18.1369 54.294 18.1897C54.316 18.2074 54.5319 18.2778 54.7697 18.3483C55.2806 18.4892 55.285 18.4892 54.4129 18.6522C54.0782 18.7139 53.7743 18.7755 53.7347 18.7887C53.6598 18.8108 53.4308 19.1235 53.4308 19.2027C53.4308 19.2292 53.5717 19.2468 53.7831 19.2468C53.9769 19.2468 54.1355 19.26 54.1355 19.2776C54.1355 19.2996 53.902 19.4141 53.6202 19.5419L53.1049 19.7665L53.0036 20.0263C52.8582 20.4051 52.8582 20.4051 53.1577 20.3699L53.4088 20.339L53.1005 20.5681C52.9331 20.6958 52.779 20.8191 52.7657 20.8455C52.7305 20.8984 52.5852 21.8057 52.6072 21.8277C52.616 21.8365 52.7173 21.7088 52.8362 21.5458C53.1357 21.1406 54.1267 20.1541 54.5539 19.8414C55.8708 18.8724 57.4079 18.1942 59.0771 17.833C59.8654 17.6656 59.8346 17.6656 59.7509 17.8682C59.5968 18.2382 59.3678 19.1323 59.2665 19.7533C59.2092 20.1144 59.1079 21.0173 59.0462 21.7572C58.9141 23.2943 58.7952 24.2853 58.6675 24.8578C58.5089 25.5845 57.8571 27.6589 57.791 27.6589C57.769 27.6589 57.5884 27.6193 57.3858 27.5709C55.2674 27.0732 52.9375 27.0952 50.7486 27.6413C50.317 27.7514 50.1056 27.7867 50.0879 27.7514C50.0703 27.725 50.0131 27.4519 49.9558 27.1436C49.7224 25.8224 49.1498 23.0389 48.9604 22.2857C48.5508 20.6561 48.1104 19.5286 46.9169 17.0314C46.4852 16.1285 46.2562 15.5956 45.9391 14.7544C45.6 13.8427 45.4678 13.3186 45.4282 12.7593L45.4018 12.3232L45.5075 12.3541C45.5647 12.3717 45.7629 12.4686 45.9435 12.5655C47.441 13.3671 48.5553 14.1863 49.6695 15.3005C50.4095 16.0449 50.7662 16.4765 51.2639 17.2208C51.6647 17.8242 52.2108 18.8856 52.4178 19.4626C52.5455 19.8237 52.572 19.8634 52.6072 19.7709C52.6424 19.674 52.7657 18.8328 52.7701 18.6742C52.7701 18.6346 52.6424 18.432 52.4839 18.2162C52.3253 18.0004 52.2064 17.8154 52.2152 17.8066C52.224 17.7934 52.3517 17.8506 52.5015 17.9211L52.7701 18.0576V17.8242C52.7701 17.2164 52.7745 17.2252 52.1447 16.6879C51.832 16.4236 51.603 16.2078 51.6338 16.2078C51.6647 16.2078 51.8849 16.2563 52.1227 16.3135C52.3561 16.3708 52.5499 16.406 52.5499 16.3928C52.5499 16.3796 52.5191 16.2519 52.4795 16.1109C52.3914 15.8026 52.409 15.8114 51.4268 15.3093C51.0172 15.0979 50.6605 14.9042 50.6385 14.8821C50.612 14.8601 50.8499 14.8425 51.2463 14.8425H51.8937L51.7528 14.6443C51.6735 14.5342 51.5193 14.3448 51.4092 14.2259L51.2066 14.0013L50.3918 13.8736C49.9426 13.7987 49.5594 13.7326 49.533 13.7238C49.511 13.7194 49.6872 13.6489 49.9294 13.5653C50.1716 13.486 50.383 13.4111 50.4006 13.3935C50.4183 13.3803 50.2597 13.2658 50.0483 13.1468L49.6651 12.9266L48.9957 12.9134C48.6257 12.9046 48.3218 12.8826 48.3218 12.865C48.3218 12.8474 48.4275 12.7857 48.5508 12.7196L48.7843 12.6095L48.52 12.5302C47.921 12.3541 46.5733 12.1559 45.9479 12.1559C45.7894 12.1559 45.7233 12.1383 45.7673 12.1162C46.0052 11.9841 47.5423 11.6406 48.454 11.5173C49.1983 11.416 50.7882 11.3807 51.5369 11.4468C52.9904 11.5745 54.4262 11.9665 55.5889 12.5523C55.7827 12.6492 55.9412 12.7152 55.9412 12.702C55.9412 12.6756 55.4303 11.9533 55.2674 11.7507C55.2277 11.7022 55.0339 11.645 54.6816 11.5789L54.1575 11.482L54.4834 11.3719L54.8137 11.2618L54.4966 10.9579C54.2103 10.6849 54.1619 10.6584 54.0342 10.676C53.9549 10.6893 53.6158 10.7113 53.2766 10.7245L52.66 10.7509L53.0873 10.4955C53.3207 10.3589 53.5057 10.2312 53.4924 10.2136C53.4836 10.196 53.3647 10.1167 53.2326 10.0418L52.9948 9.9053L52.0655 10.1784C51.5546 10.3281 51.1273 10.4382 51.1141 10.4294C51.1053 10.4162 51.2947 10.218 51.5325 9.98458C52.017 9.51772 52.017 9.54855 51.5369 9.46928C50.9336 9.37679 50.9292 9.37679 50.1716 9.9097C49.7973 10.1696 49.4846 10.381 49.4757 10.3722C49.4669 10.3633 49.5638 10.1652 49.6916 9.92732L49.9206 9.50011L49.7488 9.53094C49.6563 9.54855 49.4361 9.60581 49.2643 9.65426C48.9737 9.73794 48.9164 9.77757 48.4804 10.1784C48.2249 10.4206 48.0047 10.6144 47.9915 10.6144C47.9783 10.6144 48.0091 10.5087 48.0576 10.381C48.106 10.2576 48.1457 10.1387 48.1457 10.1255C48.1457 10.0462 46.5865 10.9227 46.0977 11.275C45.7497 11.5261 45.7321 11.5261 45.9435 11.275C47.2428 9.71592 48.89 8.39463 50.5416 7.57984C51.5722 7.06894 52.3605 6.79588 53.3339 6.60649C54.1575 6.44354 54.1399 6.47437 53.5145 6.26296C53.2062 6.16166 52.9155 6.07798 52.8626 6.07798C52.8098 6.07798 52.572 6.17928 52.3297 6.29819C52.0875 6.42151 51.8893 6.5096 51.8893 6.49639C51.8893 6.48317 51.9774 6.35985 52.0875 6.22332C52.2284 6.04275 52.2681 5.96347 52.2284 5.93704C52.1976 5.92383 51.9994 5.893 51.7924 5.87538L51.4136 5.84455L50.8367 6.31581C50.5196 6.57126 50.2597 6.76945 50.2597 6.75624C50.2597 6.73862 50.3434 6.54043 50.4403 6.31141C50.5416 6.08679 50.612 5.88419 50.5944 5.87098C50.5724 5.84896 49.9955 5.92383 49.9778 5.95466C49.8986 6.06477 48.8635 7.39486 48.8151 7.44331C48.7578 7.50056 48.7534 7.49175 48.7799 7.35522C48.9076 6.69017 48.9737 6.27617 48.956 6.25855C48.9252 6.22332 48.2073 6.60209 48.0884 6.7166C48.0311 6.76945 47.8902 7.09977 47.7317 7.55341C47.5907 7.96301 47.4586 8.31976 47.441 8.33737C47.4234 8.3594 47.3837 8.15239 47.3529 7.88814C47.3176 7.61948 47.2868 7.39926 47.278 7.39926C47.256 7.39926 46.9565 7.73839 46.7935 7.9542C46.6526 8.13478 46.6218 8.23167 46.5161 8.7734C46.45 9.10812 46.3839 9.3944 46.3751 9.40321C46.3663 9.41642 46.3311 9.32393 46.3003 9.20502C46.2694 9.0817 46.2298 8.976 46.2122 8.96278C46.1153 8.90553 45.5119 10.2797 45.3357 10.9667L45.252 11.2971L45.1992 10.9667C45.0891 10.2797 44.6971 8.85268 44.6178 8.85268C44.6002 8.85268 44.5518 8.94957 44.5077 9.07289C44.4637 9.19181 44.4152 9.2931 44.3976 9.2931C44.3844 9.2931 44.3536 9.09051 44.3359 8.84387C44.2831 8.08633 44.2655 8.01586 43.9836 7.59746C43.8118 7.3332 43.7194 7.2319 43.6973 7.27154C43.6797 7.30677 43.6225 7.51818 43.5652 7.73839C43.5123 7.96301 43.4639 8.14799 43.4551 8.14799C43.4507 8.14799 43.3494 7.77363 43.2349 7.31118L43.0279 6.47877L42.7989 6.307C42.5302 6.10441 42.2131 5.90181 42.169 5.90181C42.147 5.90181 42.1514 6.17928 42.1779 6.51841C42.2043 6.85754 42.2131 7.13501 42.1999 7.13501C42.1867 7.13501 41.9532 6.76505 41.6758 6.32022C41.4027 5.87098 41.1473 5.48781 41.1032 5.46578C41.0239 5.42174 40.5659 5.32044 40.5439 5.34246C40.5351 5.34687 40.5967 5.57149 40.6804 5.83574L40.8345 6.31581L40.2928 5.77849L39.7555 5.24117H39.3239C39.0905 5.24117 38.8967 5.25438 38.8967 5.272Z" fill="#1A191A"/>
<path d="M54.3557 32.3979C54.2456 32.4067 53.9021 32.4376 53.585 32.4596C50.6737 32.7018 47.4454 33.6575 44.402 35.1726C43.1776 35.7848 42.2968 36.3001 41.5613 36.833C40.4558 37.639 39.7908 38.3041 39.9405 38.4538C40.0902 38.6036 40.7729 38.4406 42.2483 37.8989C47.3925 36.005 51.4401 35.1021 54.7565 35.1021C57.6457 35.1021 59.9976 35.7055 62.2394 37.018C63.5739 37.802 64.7014 38.2424 65.8289 38.4318C66.3486 38.5155 67.3219 38.5287 67.7667 38.4538C68.7577 38.2864 69.6694 37.8416 70.4049 37.1589C70.5723 37.0048 70.5767 36.996 70.4578 37.04C70.3917 37.0665 70.1362 37.1061 69.8984 37.1325C68.3217 37.3043 66.1636 36.4895 63.9306 34.8775C62.8824 34.12 61.3805 33.4153 59.9579 33.0057C58.5133 32.5917 57.2801 32.4155 55.655 32.3935C55.0516 32.3891 54.4658 32.3891 54.3557 32.3979Z" fill="#2497B2"/>
<path d="M0.46 64.0999L0.514 63.8119L2.08 63.0559L3.808 53.2639L2.494 52.5079L2.548 52.2199H7.894C9.502 52.2199 10.678 52.4599 11.422 52.9399C12.166 53.4199 12.538 54.1159 12.538 55.0279C12.538 55.7239 12.322 56.3539 11.89 56.9179C11.458 57.4819 10.792 57.9319 9.892 58.2679C9.004 58.6039 7.858 58.7719 6.454 58.7719H5.896L5.158 63.0559L6.85 63.8119L6.796 64.0999H0.46ZM6.868 53.2099L6.04 57.9619H6.688C7.288 57.9619 7.78 57.8359 8.164 57.5839C8.56 57.3199 8.848 56.9719 9.028 56.5399C9.208 56.1079 9.298 55.6339 9.298 55.1179C9.298 54.5179 9.112 54.0499 8.74 53.7139C8.38 53.3779 7.852 53.2099 7.156 53.2099H6.868ZM15.4885 64.2799C14.7205 64.2799 14.0785 64.1119 13.5625 63.7759C13.0465 63.4399 12.6565 62.9899 12.3925 62.4259C12.1405 61.8619 12.0145 61.2379 12.0145 60.5539C12.0145 59.9179 12.1285 59.3059 12.3565 58.7179C12.5965 58.1299 12.9205 57.6079 13.3285 57.1519C13.7365 56.6839 14.2105 56.3179 14.7505 56.0539C15.3025 55.7779 15.8905 55.6399 16.5145 55.6399C17.3545 55.6399 18.0445 55.8079 18.5845 56.1439C19.1365 56.4679 19.5445 56.9119 19.8085 57.4759C20.0845 58.0399 20.2225 58.6699 20.2225 59.3659C20.2225 59.9779 20.1085 60.5779 19.8805 61.1659C19.6645 61.7419 19.3465 62.2639 18.9265 62.7319C18.5065 63.1999 18.0085 63.5779 17.4325 63.8659C16.8565 64.1419 16.2085 64.2799 15.4885 64.2799ZM15.7585 63.3259C16.0465 63.3259 16.3105 63.1099 16.5505 62.6779C16.7905 62.2339 16.9825 61.6639 17.1265 60.9679C17.2705 60.2599 17.3425 59.5099 17.3425 58.7179C17.3425 57.9859 17.2705 57.4459 17.1265 57.0979C16.9825 56.7499 16.7725 56.5759 16.4965 56.5759C16.2085 56.5759 15.9385 56.7919 15.6865 57.2239C15.4465 57.6439 15.2545 58.2019 15.1105 58.8979C14.9665 59.5819 14.8945 60.3199 14.8945 61.1119C14.8945 61.7599 14.9605 62.2939 15.0925 62.7139C15.2245 63.1219 15.4465 63.3259 15.7585 63.3259ZM21.2099 64.0999L22.3979 57.2419L21.3539 56.6479V56.3599L25.1699 55.6399H25.2239V57.3679H25.3679C25.7399 56.8879 26.0339 56.5279 26.2499 56.2879C26.4779 56.0359 26.6819 55.8679 26.8619 55.7839C27.0539 55.6879 27.2639 55.6399 27.4919 55.6399C27.7919 55.6399 28.0379 55.7179 28.2299 55.8739C28.4339 56.0179 28.5359 56.1559 28.5359 56.2879C28.5359 56.4199 28.5059 56.5519 28.4459 56.6839L27.6899 58.2139H27.5819L27.3659 58.0519C27.2099 57.9319 27.0599 57.8359 26.9159 57.7639C26.7839 57.6919 26.5919 57.6559 26.3399 57.6559C25.9079 57.6559 25.5119 57.8359 25.1519 58.1959L24.1439 64.0999H21.2099ZM31.0562 64.2799C30.3602 64.2799 29.8202 64.0819 29.4362 63.6859C29.0522 63.2899 28.8602 62.7079 28.8602 61.9399C28.8602 61.7959 28.8662 61.6459 28.8782 61.4899C28.9022 61.3219 28.9262 61.1539 28.9502 60.9859L29.7062 56.6119H28.6622L28.7342 56.2699L30.9122 55.2439L32.6222 53.9659H33.0902L32.7662 55.8199H34.9082V56.6119H32.6222L31.9202 60.5719C31.8842 60.7999 31.8602 60.9679 31.8482 61.0759C31.8362 61.1719 31.8302 61.2559 31.8302 61.3279C31.8302 61.8679 32.0642 62.1379 32.5322 62.1379C32.8082 62.1379 33.0722 62.0299 33.3242 61.8139C33.5762 61.5859 33.8162 61.1779 34.0442 60.5899L34.4582 60.7159C34.1222 61.7839 33.6662 62.6479 33.0902 63.3079C32.5262 63.9559 31.8482 64.2799 31.0562 64.2799ZM36.9828 64.2799C36.4788 64.2799 36.0648 64.0819 35.7408 63.6859C35.4168 63.2899 35.2548 62.7379 35.2548 62.0299C35.2548 61.0939 35.4288 60.2359 35.7768 59.4559C36.1248 58.6759 36.5808 58.0039 37.1448 57.4399C37.7088 56.8639 38.3268 56.4199 38.9988 56.1079C39.6708 55.7959 40.3308 55.6399 40.9788 55.6399C41.6628 55.6399 42.1908 55.8079 42.5628 56.1439L43.6788 55.8199H43.9668L42.9408 61.7419C42.9048 61.9579 42.9108 62.1379 42.9588 62.2819C43.0188 62.4259 43.1208 62.4979 43.2648 62.4979C43.4208 62.4979 43.5888 62.4079 43.7688 62.2279C43.9488 62.0359 44.1468 61.6999 44.3628 61.2199L44.7588 61.3459C44.4348 62.2219 44.0448 62.9299 43.5888 63.4699C43.1328 64.0099 42.5688 64.2799 41.8968 64.2799C41.3328 64.2799 40.8828 64.1239 40.5468 63.8119C40.2228 63.4999 40.0488 63.0319 40.0248 62.4079H39.9168C39.5448 62.8759 39.2088 63.2479 38.9088 63.5239C38.6088 63.7879 38.3088 63.9799 38.0088 64.0999C37.7088 64.2199 37.3668 64.2799 36.9828 64.2799ZM38.3148 60.8959C38.3148 61.3999 38.3568 61.7659 38.4408 61.9939C38.5248 62.2099 38.6688 62.3179 38.8728 62.3179C39.0888 62.3179 39.2928 62.2399 39.4848 62.0839C39.6768 61.9279 39.8808 61.7119 40.0968 61.4359V61.3999L40.8888 56.7199C40.7088 56.5999 40.4988 56.5399 40.2588 56.5399C39.8748 56.5399 39.5388 56.7439 39.2508 57.1519C38.9628 57.5479 38.7348 58.0819 38.5668 58.7539C38.3988 59.4139 38.3148 60.1279 38.3148 60.8959ZM47.4323 64.2799C46.7243 64.2799 46.2023 64.0399 45.8663 63.5599C45.5423 63.0799 45.4643 62.3599 45.6323 61.3999L47.2523 52.2019L46.0103 51.6079V51.3199L50.4023 50.5999H50.4563L48.4763 61.7419C48.4403 61.9579 48.4463 62.1379 48.4943 62.2819C48.5543 62.4259 48.6563 62.4979 48.8003 62.4979C48.9563 62.4979 49.1243 62.4079 49.3043 62.2279C49.4843 62.0359 49.6823 61.6999 49.8983 61.2199L50.2943 61.3459C49.9703 62.2219 49.5803 62.9299 49.1243 63.4699C48.6683 64.0099 48.1043 64.2799 47.4323 64.2799ZM57.1274 64.2799C56.6234 64.2799 56.2094 64.0819 55.8854 63.6859C55.5614 63.2899 55.3994 62.7379 55.3994 62.0299C55.3994 61.0939 55.5734 60.2359 55.9214 59.4559C56.2694 58.6759 56.7254 58.0039 57.2894 57.4399C57.8534 56.8639 58.4714 56.4199 59.1434 56.1079C59.8154 55.7959 60.4754 55.6399 61.1234 55.6399C61.1594 55.6399 61.1954 55.6399 61.2314 55.6399L61.8254 52.1839L60.4214 51.6079V51.3199L64.9754 50.5999H65.0294L63.0854 61.7419C63.0494 61.9579 63.0554 62.1379 63.1034 62.2819C63.1634 62.4259 63.2654 62.4979 63.4094 62.4979C63.5654 62.4979 63.7334 62.4079 63.9134 62.2279C64.0934 62.0359 64.2914 61.6999 64.5074 61.2199L64.9034 61.3459C64.5794 62.2219 64.1894 62.9299 63.7334 63.4699C63.2774 64.0099 62.7134 64.2799 62.0414 64.2799C61.4774 64.2799 61.0274 64.1239 60.6914 63.8119C60.3674 63.4999 60.1934 63.0319 60.1694 62.4079H60.0614C59.6894 62.8759 59.3534 63.2479 59.0534 63.5239C58.7534 63.7879 58.4534 63.9799 58.1534 64.0999C57.8534 64.2199 57.5114 64.2799 57.1274 64.2799ZM58.4594 60.8959C58.4594 61.3999 58.5014 61.7659 58.5854 61.9939C58.6694 62.2099 58.8134 62.3179 59.0174 62.3179C59.2334 62.3179 59.4374 62.2399 59.6294 62.0839C59.8214 61.9279 60.0254 61.7119 60.2414 61.4359V61.3999L61.0334 56.7199C60.8534 56.5879 60.6434 56.5219 60.4034 56.5219C60.0194 56.5219 59.6834 56.7259 59.3954 57.1339C59.1074 57.5419 58.8794 58.0819 58.7114 58.7539C58.5434 59.4139 58.4594 60.1279 58.4594 60.8959ZM61.3214 57.0079C61.2974 56.9599 61.2674 56.9179 61.2314 56.8819L61.3214 57.0079ZM68.9611 64.2799C68.1931 64.2799 67.5511 64.1119 67.0351 63.7759C66.5191 63.4399 66.1291 62.9899 65.8651 62.4259C65.6131 61.8619 65.4871 61.2379 65.4871 60.5539C65.4871 59.9179 65.6011 59.3059 65.8291 58.7179C66.0691 58.1299 66.3931 57.6079 66.8011 57.1519C67.2091 56.6839 67.6831 56.3179 68.2231 56.0539C68.7751 55.7779 69.3631 55.6399 69.9871 55.6399C70.8271 55.6399 71.5171 55.8079 72.0571 56.1439C72.6091 56.4679 73.0171 56.9119 73.2811 57.4759C73.5571 58.0399 73.6951 58.6699 73.6951 59.3659C73.6951 59.9779 73.5811 60.5779 73.3531 61.1659C73.1371 61.7419 72.8191 62.2639 72.3991 62.7319C71.9791 63.1999 71.4811 63.5779 70.9051 63.8659C70.3291 64.1419 69.6811 64.2799 68.9611 64.2799ZM69.2311 63.3259C69.5191 63.3259 69.7831 63.1099 70.0231 62.6779C70.2631 62.2339 70.4551 61.6639 70.5991 60.9679C70.7431 60.2599 70.8151 59.5099 70.8151 58.7179C70.8151 57.9859 70.7431 57.4459 70.5991 57.0979C70.4551 56.7499 70.2451 56.5759 69.9691 56.5759C69.6811 56.5759 69.4111 56.7919 69.1591 57.2239C68.9191 57.6439 68.7271 58.2019 68.5831 58.8979C68.4391 59.5819 68.3671 60.3199 68.3671 61.1119C68.3671 61.7599 68.4331 62.2939 68.5651 62.7139C68.6971 63.1219 68.9191 63.3259 69.2311 63.3259ZM82.6926 64.2799C81.9486 64.2799 81.2946 64.1959 80.7306 64.0279C80.1666 63.8479 79.6506 63.6079 79.1826 63.3079L79.5066 60.1939H79.8306L80.9286 62.7319C81.0966 62.8639 81.3186 62.9959 81.5946 63.1279C81.8706 63.2599 82.2126 63.3259 82.6206 63.3259C83.2566 63.3259 83.8026 63.1639 84.2586 62.8399C84.7146 62.5039 84.9426 62.0599 84.9426 61.5079C84.9426 61.1479 84.8646 60.8479 84.7086 60.6079C84.5646 60.3679 84.3066 60.1159 83.9346 59.8519C83.5746 59.5879 83.0706 59.2519 82.4226 58.8439C81.9666 58.5559 81.6006 58.2799 81.3246 58.0159C81.0486 57.7519 80.8446 57.4579 80.7126 57.1339C80.5806 56.8099 80.5146 56.4139 80.5146 55.9459C80.5146 55.2259 80.7246 54.5719 81.1446 53.9839C81.5646 53.3839 82.1346 52.9099 82.8546 52.5619C83.5746 52.2139 84.3966 52.0399 85.3206 52.0399C85.8966 52.0399 86.4426 52.1179 86.9586 52.2739C87.4866 52.4299 87.9426 52.6399 88.3266 52.9039L88.0386 55.7839H87.7146L86.6346 53.5699C86.4666 53.4139 86.2746 53.2819 86.0586 53.1739C85.8426 53.0659 85.5666 53.0119 85.2306 53.0119C84.6906 53.0119 84.2406 53.1799 83.8806 53.5159C83.5206 53.8519 83.3406 54.2539 83.3406 54.7219C83.3406 54.9979 83.3886 55.2499 83.4846 55.4779C83.5926 55.6939 83.7786 55.9219 84.0426 56.1619C84.3066 56.3899 84.6966 56.6659 85.2126 56.9899C85.7646 57.3379 86.2266 57.6559 86.5986 57.9439C86.9706 58.2319 87.2466 58.5559 87.4266 58.9159C87.6186 59.2759 87.7146 59.7139 87.7146 60.2299C87.7146 60.9499 87.4986 61.6219 87.0666 62.2459C86.6466 62.8579 86.0586 63.3499 85.3026 63.7219C84.5586 64.0939 83.6886 64.2799 82.6926 64.2799ZM92.5334 64.2799C91.7654 64.2799 91.1234 64.1119 90.6074 63.7759C90.0914 63.4399 89.7014 62.9899 89.4374 62.4259C89.1854 61.8619 89.0594 61.2379 89.0594 60.5539C89.0594 59.9179 89.1734 59.3059 89.4014 58.7179C89.6414 58.1299 89.9654 57.6079 90.3734 57.1519C90.7814 56.6839 91.2554 56.3179 91.7954 56.0539C92.3474 55.7779 92.9354 55.6399 93.5594 55.6399C94.3994 55.6399 95.0894 55.8079 95.6294 56.1439C96.1814 56.4679 96.5894 56.9119 96.8534 57.4759C97.1294 58.0399 97.2674 58.6699 97.2674 59.3659C97.2674 59.9779 97.1534 60.5779 96.9254 61.1659C96.7094 61.7419 96.3914 62.2639 95.9714 62.7319C95.5514 63.1999 95.0534 63.5779 94.4774 63.8659C93.9014 64.1419 93.2534 64.2799 92.5334 64.2799ZM92.8034 63.3259C93.0914 63.3259 93.3554 63.1099 93.5954 62.6779C93.8354 62.2339 94.0274 61.6639 94.1714 60.9679C94.3154 60.2599 94.3874 59.5099 94.3874 58.7179C94.3874 57.9859 94.3154 57.4459 94.1714 57.0979C94.0274 56.7499 93.8174 56.5759 93.5414 56.5759C93.2534 56.5759 92.9834 56.7919 92.7314 57.2239C92.4914 57.6439 92.2994 58.2019 92.1554 58.8979C92.0114 59.5819 91.9394 60.3199 91.9394 61.1119C91.9394 61.7599 92.0054 62.2939 92.1374 62.7139C92.2694 63.1219 92.4914 63.3259 92.8034 63.3259ZM100.325 64.2799C99.6168 64.2799 99.0948 64.0399 98.7588 63.5599C98.4348 63.0799 98.3568 62.3599 98.5248 61.3999L100.145 52.2019L98.9028 51.6079V51.3199L103.295 50.5999H103.349L101.369 61.7419C101.333 61.9579 101.339 62.1379 101.387 62.2819C101.447 62.4259 101.549 62.4979 101.693 62.4979C101.849 62.4979 102.017 62.4079 102.197 62.2279C102.377 62.0359 102.575 61.6999 102.791 61.2199L103.187 61.3459C102.863 62.2219 102.473 62.9299 102.017 63.4699C101.561 64.0099 100.997 64.2799 100.325 64.2799Z" fill="black"/>
<path d="M33.224 42.5977C32.92 42.5977 32.6453 42.651 32.4 42.7577C32.1547 42.859 31.9467 43.011 31.776 43.2137C31.6053 43.411 31.4747 43.6537 31.384 43.9417C31.2933 44.2244 31.248 44.5444 31.248 44.9017C31.248 45.371 31.32 45.779 31.464 46.1257C31.6133 46.4724 31.832 46.739 32.12 46.9257C32.4133 47.1124 32.7787 47.2057 33.216 47.2057C33.4667 47.2057 33.704 47.1844 33.928 47.1417C34.152 47.099 34.3707 47.0457 34.584 46.9817V47.6057C34.3707 47.6857 34.1493 47.7444 33.92 47.7817C33.696 47.819 33.4267 47.8377 33.112 47.8377C32.5307 47.8377 32.0453 47.7177 31.656 47.4777C31.2667 47.2377 30.9733 46.8964 30.776 46.4537C30.584 46.011 30.488 45.491 30.488 44.8937C30.488 44.4617 30.5467 44.067 30.664 43.7097C30.7867 43.3524 30.9627 43.043 31.192 42.7817C31.4267 42.5204 31.7147 42.3204 32.056 42.1817C32.3973 42.0377 32.7893 41.9657 33.232 41.9657C33.5253 41.9657 33.808 41.995 34.08 42.0537C34.352 42.1124 34.5947 42.195 34.808 42.3017L34.52 42.9097C34.344 42.8297 34.1467 42.7577 33.928 42.6937C33.7147 42.6297 33.48 42.5977 33.224 42.5977ZM39.4627 45.6057C39.4627 45.963 39.4147 46.2804 39.3187 46.5577C39.228 46.8297 39.0947 47.0617 38.9187 47.2537C38.748 47.4457 38.5374 47.5924 38.2867 47.6937C38.0414 47.7897 37.7667 47.8377 37.4627 47.8377C37.18 47.8377 36.9187 47.7897 36.6787 47.6937C36.4387 47.5924 36.2307 47.4457 36.0547 47.2537C35.8787 47.0617 35.74 46.8297 35.6387 46.5577C35.5427 46.2804 35.4947 45.963 35.4947 45.6057C35.4947 45.131 35.5747 44.731 35.7347 44.4057C35.8947 44.075 36.124 43.8244 36.4227 43.6537C36.7214 43.4777 37.076 43.3897 37.4867 43.3897C37.876 43.3897 38.2174 43.4777 38.5107 43.6537C38.8094 43.8244 39.0414 44.075 39.2067 44.4057C39.3774 44.731 39.4627 45.131 39.4627 45.6057ZM36.2227 45.6057C36.2227 45.9417 36.2654 46.235 36.3507 46.4857C36.4414 46.731 36.58 46.9204 36.7667 47.0537C36.9534 47.187 37.1907 47.2537 37.4787 47.2537C37.7667 47.2537 38.004 47.187 38.1907 47.0537C38.3774 46.9204 38.5134 46.731 38.5987 46.4857C38.6894 46.235 38.7347 45.9417 38.7347 45.6057C38.7347 45.2644 38.6894 44.9737 38.5987 44.7337C38.508 44.4937 38.3694 44.3097 38.1827 44.1817C38.0014 44.0484 37.764 43.9817 37.4707 43.9817C37.0334 43.9817 36.716 44.1257 36.5187 44.4137C36.3214 44.7017 36.2227 45.099 36.2227 45.6057ZM42.6424 43.3897C43.1544 43.3897 43.5411 43.515 43.8024 43.7657C44.0638 44.011 44.1944 44.411 44.1944 44.9657V47.7577H43.4984V45.0137C43.4984 44.667 43.4211 44.4084 43.2664 44.2377C43.1118 44.067 42.8691 43.9817 42.5384 43.9817C42.0638 43.9817 41.7358 44.115 41.5544 44.3817C41.3731 44.6484 41.2824 45.0324 41.2824 45.5337V47.7577H40.5784V43.4697H41.1464L41.2504 44.0537H41.2904C41.3864 43.9044 41.5038 43.7817 41.6424 43.6857C41.7864 43.5844 41.9438 43.5097 42.1144 43.4617C42.2851 43.4137 42.4611 43.3897 42.6424 43.3897ZM47.0438 47.8377C46.5104 47.8377 46.0838 47.6537 45.7638 47.2857C45.4438 46.9124 45.2838 46.3577 45.2838 45.6217C45.2838 44.8857 45.4438 44.331 45.7638 43.9577C46.0891 43.579 46.5184 43.3897 47.0518 43.3897C47.2758 43.3897 47.4704 43.419 47.6358 43.4777C47.8011 43.531 47.9451 43.6057 48.0678 43.7017C48.1904 43.7977 48.2944 43.9044 48.3798 44.0217H48.4278C48.4224 43.9524 48.4118 43.851 48.3958 43.7177C48.3851 43.579 48.3798 43.4697 48.3798 43.3897V41.6777H49.0838V47.7577H48.5158L48.4118 47.1817H48.3798C48.2944 47.3044 48.1904 47.4164 48.0678 47.5177C47.9451 47.6137 47.7984 47.691 47.6278 47.7497C47.4624 47.8084 47.2678 47.8377 47.0438 47.8377ZM47.1558 47.2537C47.6091 47.2537 47.9264 47.131 48.1078 46.8857C48.2944 46.635 48.3878 46.259 48.3878 45.7577V45.6297C48.3878 45.0964 48.2998 44.6884 48.1238 44.4057C47.9478 44.1177 47.6224 43.9737 47.1478 43.9737C46.7691 43.9737 46.4838 44.1257 46.2918 44.4297C46.1051 44.7284 46.0118 45.131 46.0118 45.6377C46.0118 46.1497 46.1051 46.547 46.2918 46.8297C46.4838 47.1124 46.7718 47.2537 47.1558 47.2537ZM54.1736 45.6057C54.1736 45.963 54.1256 46.2804 54.0296 46.5577C53.939 46.8297 53.8056 47.0617 53.6296 47.2537C53.459 47.4457 53.2483 47.5924 52.9976 47.6937C52.7523 47.7897 52.4776 47.8377 52.1736 47.8377C51.891 47.8377 51.6296 47.7897 51.3896 47.6937C51.1496 47.5924 50.9416 47.4457 50.7656 47.2537C50.5896 47.0617 50.451 46.8297 50.3496 46.5577C50.2536 46.2804 50.2056 45.963 50.2056 45.6057C50.2056 45.131 50.2856 44.731 50.4456 44.4057C50.6056 44.075 50.835 43.8244 51.1336 43.6537C51.4323 43.4777 51.787 43.3897 52.1976 43.3897C52.587 43.3897 52.9283 43.4777 53.2216 43.6537C53.5203 43.8244 53.7523 44.075 53.9176 44.4057C54.0883 44.731 54.1736 45.131 54.1736 45.6057ZM50.9336 45.6057C50.9336 45.9417 50.9763 46.235 51.0616 46.4857C51.1523 46.731 51.291 46.9204 51.4776 47.0537C51.6643 47.187 51.9016 47.2537 52.1896 47.2537C52.4776 47.2537 52.715 47.187 52.9016 47.0537C53.0883 46.9204 53.2243 46.731 53.3096 46.4857C53.4003 46.235 53.4456 45.9417 53.4456 45.6057C53.4456 45.2644 53.4003 44.9737 53.3096 44.7337C53.219 44.4937 53.0803 44.3097 52.8936 44.1817C52.7123 44.0484 52.475 43.9817 52.1816 43.9817C51.7443 43.9817 51.427 44.1257 51.2296 44.4137C51.0323 44.7017 50.9336 45.099 50.9336 45.6057ZM59.9934 43.3897C60.4787 43.3897 60.8414 43.515 61.0814 43.7657C61.3214 44.011 61.4414 44.411 61.4414 44.9657V47.7577H60.7454V44.9977C60.7454 44.6617 60.6734 44.4084 60.5294 44.2377C60.3907 44.067 60.172 43.9817 59.8734 43.9817C59.4574 43.9817 59.1587 44.1017 58.9774 44.3417C58.8014 44.5817 58.7134 44.931 58.7134 45.3897V47.7577H58.0174V44.9977C58.0174 44.7737 57.9854 44.587 57.9214 44.4377C57.8574 44.283 57.7614 44.1684 57.6334 44.0937C57.5054 44.019 57.34 43.9817 57.1374 43.9817C56.8494 43.9817 56.6227 44.043 56.4574 44.1657C56.292 44.283 56.172 44.4564 56.0974 44.6857C56.028 44.915 55.9934 45.1977 55.9934 45.5337V47.7577H55.2894V43.4697H55.8574L55.9614 44.0537H56.0014C56.092 43.9044 56.2014 43.7817 56.3294 43.6857C56.4627 43.5844 56.6094 43.5097 56.7694 43.4617C56.9294 43.4137 57.0947 43.3897 57.2654 43.3897C57.596 43.3897 57.8707 43.4484 58.0894 43.5657C58.3134 43.683 58.476 43.8644 58.5774 44.1097H58.6174C58.7614 43.8644 58.956 43.683 59.2014 43.5657C59.452 43.4484 59.716 43.3897 59.9934 43.3897ZM63.4699 47.7577H62.7659V43.4697H63.4699V47.7577ZM64.3019 41.7097C64.2539 41.7844 64.1846 41.875 64.0939 41.9817C64.0033 42.0884 63.9019 42.2004 63.7899 42.3177C63.6833 42.4297 63.5739 42.539 63.4619 42.6457C63.3553 42.747 63.2539 42.835 63.1579 42.9097H62.6939V42.8137C62.7739 42.7124 62.8593 42.5924 62.9499 42.4537C63.0459 42.315 63.1393 42.1737 63.2299 42.0297C63.3206 41.8804 63.3953 41.747 63.4539 41.6297H64.3019V41.7097ZM66.8924 43.3897C67.4044 43.3897 67.7911 43.515 68.0524 43.7657C68.3138 44.011 68.4444 44.411 68.4444 44.9657V47.7577H67.7484V45.0137C67.7484 44.667 67.6711 44.4084 67.5164 44.2377C67.3618 44.067 67.1191 43.9817 66.7884 43.9817C66.3138 43.9817 65.9858 44.115 65.8044 44.3817C65.6231 44.6484 65.5324 45.0324 65.5324 45.5337V47.7577H64.8284V43.4697H65.3964L65.5004 44.0537H65.5404C65.6364 43.9044 65.7538 43.7817 65.8924 43.6857C66.0364 43.5844 66.1938 43.5097 66.3644 43.4617C66.5351 43.4137 66.7111 43.3897 66.8924 43.3897ZM70.4778 43.4697V47.7577H69.7738V43.4697H70.4778ZM70.1338 41.8617C70.2404 41.8617 70.3338 41.899 70.4138 41.9737C70.4991 42.043 70.5418 42.155 70.5418 42.3097C70.5418 42.459 70.4991 42.571 70.4138 42.6457C70.3338 42.7204 70.2404 42.7577 70.1338 42.7577C70.0164 42.7577 69.9178 42.7204 69.8378 42.6457C69.7578 42.571 69.7178 42.459 69.7178 42.3097C69.7178 42.155 69.7578 42.043 69.8378 41.9737C69.9178 41.899 70.0164 41.8617 70.1338 41.8617ZM75.5642 45.6057C75.5642 45.963 75.5163 46.2804 75.4203 46.5577C75.3296 46.8297 75.1963 47.0617 75.0203 47.2537C74.8496 47.4457 74.6389 47.5924 74.3883 47.6937C74.1429 47.7897 73.8683 47.8377 73.5643 47.8377C73.2816 47.8377 73.0203 47.7897 72.7803 47.6937C72.5403 47.5924 72.3323 47.4457 72.1562 47.2537C71.9803 47.0617 71.8416 46.8297 71.7403 46.5577C71.6443 46.2804 71.5963 45.963 71.5963 45.6057C71.5963 45.131 71.6763 44.731 71.8363 44.4057C71.9963 44.075 72.2256 43.8244 72.5243 43.6537C72.8229 43.4777 73.1776 43.3897 73.5883 43.3897C73.9776 43.3897 74.3189 43.4777 74.6123 43.6537C74.9109 43.8244 75.1429 44.075 75.3083 44.4057C75.4789 44.731 75.5642 45.131 75.5642 45.6057ZM72.3243 45.6057C72.3243 45.9417 72.3669 46.235 72.4523 46.4857C72.5429 46.731 72.6816 46.9204 72.8683 47.0537C73.0549 47.187 73.2923 47.2537 73.5803 47.2537C73.8683 47.2537 74.1056 47.187 74.2923 47.0537C74.4789 46.9204 74.6149 46.731 74.7003 46.4857C74.7909 46.235 74.8363 45.9417 74.8363 45.6057C74.8363 45.2644 74.7909 44.9737 74.7003 44.7337C74.6096 44.4937 74.4709 44.3097 74.2843 44.1817C74.1029 44.0484 73.8656 43.9817 73.5723 43.9817C73.1349 43.9817 72.8176 44.1257 72.6203 44.4137C72.4229 44.7017 72.3243 45.099 72.3243 45.6057Z" fill="#2497B2"/>
</svg>
