<svg width="104" height="91" viewBox="0 0 104 91" fill="none" xmlns="http://www.w3.org/2000/svg">
<circle cx="55" cy="26" r="18" fill="#F5B426"/>
<path d="M29.625 7.48128C29.625 7.51253 29.725 7.68753 29.8438 7.87503C29.9563 8.06253 30.0438 8.22503 30.0313 8.23753C30.025 8.25003 29.7438 8.09378 29.4125 7.88753C28.8125 7.51878 28.8063 7.51878 28.4813 7.57503C27.8938 7.66878 27.0625 7.88753 27.0938 7.93128C27.1063 7.95628 27.2813 8.01253 27.4813 8.06253C27.9625 8.16878 28.7625 8.45003 29.5313 8.78128C32.175 9.93128 34.5813 11.8375 36.6563 14.4188C37.2813 15.2063 38.2188 16.5625 38.1313 16.5625C38.1 16.5625 38.0188 16.5 37.9563 16.4188C37.7438 16.15 36.8625 15.3688 36.25 14.9063C35.6 14.4125 34.8688 13.925 34.8313 13.9563C34.825 13.9688 34.8563 14.1313 34.9 14.3188C34.95 14.5063 34.9813 14.6625 34.975 14.675C34.9625 14.6813 34.6938 14.3875 34.3688 14.0188C34.0375 13.6438 33.6813 13.2938 33.5563 13.2375C33.2813 13.1 32.475 12.8125 32.45 12.8438C32.4375 12.8563 32.5438 13.1375 32.6813 13.475C32.8188 13.8125 32.925 14.0938 32.9125 14.1063C32.9063 14.1188 32.4875 13.775 31.9938 13.35C31.0938 12.5813 31.0875 12.575 30.7188 12.5438C30.5125 12.5188 30.15 12.525 29.9188 12.55L29.4938 12.5938L30.0938 13.3063C30.4438 13.7125 30.65 13.9938 30.5813 13.975C30.5125 13.95 29.9188 13.7125 29.2563 13.4375C28.0875 12.9563 28.05 12.95 27.825 13.025C27.475 13.15 27.25 13.2625 27.25 13.3125C27.25 13.3375 27.4813 13.5188 27.7688 13.7188C28.05 13.925 28.2938 14.0938 28.3063 14.1063C28.4 14.175 28.175 14.1563 27.4063 14.025C26.925 13.9438 26.45 13.8813 26.35 13.875C26.2313 13.875 26.0188 13.9813 25.7125 14.2C25.4563 14.3813 25.25 14.5438 25.25 14.5625C25.25 14.5813 25.4188 14.6625 25.625 14.7438C25.8375 14.8313 26.0188 14.9188 26.0313 14.9438C26.05 14.9688 25.7875 15.0063 25.4563 15.0313C25.1188 15.05 24.7813 15.0813 24.7063 15.1C24.575 15.125 23.6313 16.1375 23.4938 16.3938C23.4313 16.5 23.4375 16.5 23.6063 16.4188C23.8875 16.2688 25.3063 15.8313 25.9438 15.6938C27.2438 15.4188 27.9625 15.35 29.5625 15.35C32.2813 15.3563 34.5625 15.7938 37.2188 16.8313L38.0313 17.15L37.4875 17.225C37.1875 17.2688 36.6938 17.3625 36.3938 17.4375C35.375 17.675 33.6313 18.2875 33.7313 18.375C33.7563 18.4 33.9125 18.4688 34.0813 18.5313C34.2438 18.5938 34.3688 18.65 34.3625 18.6625C34.35 18.6688 33.9375 18.725 33.4375 18.7813L32.5375 18.8875L32.0063 19.2438C31.7188 19.4375 31.4688 19.625 31.4563 19.6625C31.4438 19.7 31.7313 19.7938 32.0938 19.875C32.4563 19.95 32.7438 20.025 32.7313 20.0375C32.7188 20.05 32.1938 20.2 31.5563 20.3625L30.4063 20.6688L30.1688 20.975C29.9125 21.3063 29.5375 21.9313 29.5688 21.9625C29.5813 21.975 29.975 21.9438 30.4375 21.8938C30.9 21.85 31.3 21.8188 31.325 21.8313C31.35 21.8375 30.85 22.175 30.2125 22.5875C29.5813 22.9938 29.0438 23.3563 29.0188 23.3938C28.9688 23.4813 28.8125 24.2125 28.8438 24.2438C28.8625 24.2563 29.1563 24.1625 29.5063 24.0375C29.8625 23.9188 30.1563 23.8188 30.1625 23.8313C30.1688 23.8375 29.8375 24.1938 29.4313 24.625C28.6188 25.4813 28.65 25.4063 28.725 26.2L28.7688 26.6125L29.1625 26.3688C29.3813 26.2375 29.5625 26.1375 29.5625 26.1563C29.5625 26.1688 29.4 26.45 29.2063 26.7875L28.8563 27.3938L28.9563 27.9313C29.075 28.5375 29.25 29.15 29.2875 29.1063C29.3063 29.0938 29.4 28.7688 29.5063 28.3813C30.4938 24.6813 33.1438 21.0938 36.875 18.4063C37.5563 17.9188 38.3 17.4375 38.3813 17.4375C38.4 17.4375 38.4375 17.75 38.4625 18.1375C38.5563 19.7188 38.9063 21.375 39.6125 23.6563C39.8188 24.3063 40.1688 25.45 40.4 26.1875C41.2313 28.8563 41.475 30.0188 41.6875 32.375C41.9125 34.9188 42.0313 36.8188 42.1563 40L42.1938 40.9063L41.675 41.2188C39.2688 42.6813 37.4688 44.7813 36.7188 47.0313C36.5313 47.575 36.3125 48.6375 36.3125 48.9688V49.1813L37.6438 48.5375C40.8063 47 43.9688 45.9188 47.0625 45.3188C49.175 44.9125 50.125 44.8125 52.375 44.7688C54.4938 44.7313 55.5938 44.8063 57.1688 45.1C60.1063 45.6375 62.15 46.4438 64.9375 48.1688C66.6063 49.2 66.4563 49.1313 66.4063 48.7688C66.1813 47.1813 65.65 45.8563 64.6875 44.5C63.85 43.3313 62.375 42.0063 60.9688 41.1563C60.4063 40.8125 58.7625 40 58.6438 40C58.5438 40 58.5251 40.1313 58.7751 38.7688C59.2063 36.425 59.2688 35.6938 59.2751 33.375C59.2813 32.225 59.2563 30.5063 59.225 29.5625C59.1875 28.3438 59.1938 27.675 59.2438 27.2625C59.3188 26.6438 59.5938 25.6875 59.6875 25.6875C59.725 25.6875 59.9938 25.9875 60.2938 26.35C62.0376 28.4563 63.0876 30.5438 63.6063 32.9375C63.7313 33.5063 63.7688 33.9188 63.8 34.9375L63.8438 36.2188L64.0688 35.8438C64.5688 35.0188 64.5688 35.0188 64.4375 34.4938C64.2688 33.8438 64.2813 33.8063 64.5563 34.125L64.8 34.4063L64.8625 34.2438C64.9 34.1563 64.9688 33.9438 65.0188 33.7688L65.1125 33.4563L64.7438 32.75C64.5376 32.3625 64.3813 32.0313 64.3938 32.025C64.4063 32.0125 64.5938 32.125 64.8125 32.2813C65.0313 32.4375 65.2376 32.5625 65.2626 32.5625C65.2876 32.5625 65.3125 32.4 65.3125 32.2L65.3063 31.8438L64.6188 31.0375C64.2438 30.5938 63.9438 30.225 63.9563 30.2125C63.9688 30.2 64.2563 30.3 64.5876 30.4438C64.9251 30.5813 65.2125 30.6875 65.225 30.675C65.2625 30.6313 65.0001 29.7313 64.9188 29.6125C64.8751 29.55 64.4813 29.275 64.0313 29L63.2188 28.4938L63.8063 28.5375L64.3938 28.5813L64.1125 28.2125C63.725 27.7125 63.6813 27.6813 62.9875 27.4C62.65 27.2688 62.375 27.1375 62.375 27.1063C62.375 27.0813 62.5063 27.0625 62.675 27.0625L62.9688 27.0563L62.7813 26.9C62.4313 26.6 61.575 26.0625 60.8 25.6563C60.3813 25.4375 60.0875 25.25 60.1563 25.25C60.8125 25.25 62.8563 25.6813 64 26.0563C66.3313 26.825 68.1126 27.9063 69.6813 29.4938C70.0688 29.8875 70.3751 30.1563 70.3563 30.0875C70.3376 30.025 70.2625 29.7125 70.1875 29.3938L70.05 28.8188L69.5876 28.5313C69.3313 28.3688 69.125 28.225 69.125 28.2063C69.125 28.1875 69.2813 28.1875 69.4688 28.2C69.6563 28.2188 69.8125 28.2188 69.8125 28.2063C69.8125 28.1938 69.7125 27.9938 69.6 27.7563L69.3813 27.3313L68.5813 27.0563C67.7 26.7563 67.7 26.775 68.5813 26.6563C68.7438 26.6375 68.875 26.5938 68.875 26.5625C68.875 26.5313 68.7688 26.3938 68.6438 26.2625L68.4063 26.0188L67.5625 25.9375C67.1 25.8938 66.6063 25.8438 66.4688 25.8188L66.2188 25.775L66.875 25.5375C67.2375 25.4 67.5438 25.2813 67.5563 25.2688C67.6001 25.2375 67.375 25.0813 66.9375 24.85L66.5251 24.6313L65.5938 24.8438C65.075 24.9563 64.6501 25.0438 64.6376 25.0313C64.6313 25.025 64.8063 24.8688 65.0313 24.6813C65.2563 24.5 65.4126 24.325 65.3876 24.3C65.3563 24.2688 65.0938 24.2313 64.8063 24.2125C64.3001 24.175 64.2563 24.1813 63.6438 24.425C63.2875 24.5625 63 24.6563 63 24.6375C63 24.6188 63.0938 24.5063 63.2063 24.3875L63.4063 24.1688L62.9063 24.2125C62.2125 24.2688 61.1625 24.425 60.75 24.5313C60.5625 24.5813 60.4 24.6063 60.3813 24.5938C60.3375 24.5438 61.8438 23.8563 62.6688 23.5438C63.5063 23.225 64.7563 22.8813 65.7188 22.7063C66.225 22.6188 66.6625 22.5938 67.9688 22.6C69.45 22.6063 69.6563 22.6188 70.3 22.7563C70.6938 22.8438 70.9938 22.8813 70.9813 22.85C70.9688 22.8125 70.7375 22.6063 70.4688 22.3875L69.9813 21.9875L69.3938 22.0125C69.075 22.025 68.8125 22.0313 68.8125 22.025C68.8125 22.0188 68.9563 21.925 69.1313 21.825L69.4563 21.6375L69.3063 21.5438C69.2251 21.4938 69.025 21.3813 68.8625 21.3063L68.5688 21.1625L67.8938 21.3688C67.525 21.4813 67.1625 21.5875 67.0938 21.6063C67.0188 21.625 67.1251 21.4813 67.3688 21.2313L67.7688 20.825L67.5251 20.7563C67.1251 20.6438 67.0188 20.6688 66.4188 21.0188C65.3563 21.6375 65.1063 21.7688 65.1563 21.6813C65.1875 21.6313 65.3438 21.3875 65.5126 21.1375C65.9563 20.475 65.9563 20.475 65.5563 20.525C64.6126 20.6438 64.7438 20.575 64.05 21.35C63.7 21.7375 63.4063 22.05 63.3938 22.0375C63.3813 22.025 63.425 21.8063 63.5 21.5563C63.5688 21.3063 63.625 21.075 63.625 21.0438C63.625 21.0125 63.4063 21.1063 63.1438 21.25C62.6875 21.4938 62.6313 21.5438 62.2875 22.0688C62.0875 22.375 61.8938 22.6438 61.8688 22.6625C61.8376 22.6813 61.8313 22.5625 61.8563 22.3938L61.8938 22.1L61.6313 22.3063C61.2188 22.6375 60.4875 23.375 60.1938 23.7625C59.925 24.125 59.8313 24.2063 59.9001 24.0313C60.0063 23.75 60.2001 22.5688 60.2313 22L60.2688 21.3438L60.0375 21.5563C59.9125 21.675 59.8125 21.7625 59.8125 21.7438C59.8125 21.7313 59.9126 21.4188 60.0251 21.05C60.1438 20.6875 60.2313 20.3313 60.2188 20.2688C60.2063 20.2063 60.1626 19.9813 60.1188 19.7625C60.0813 19.55 60.025 19.3625 60.0063 19.35C59.9813 19.3313 59.8313 19.5188 59.6625 19.7563C59.4938 19.9938 59.3501 20.1813 59.3376 20.175C59.3313 20.1625 59.3938 19.725 59.475 19.2063L59.625 18.25L59.4063 17.8938C59.125 17.4188 58.9625 17.2188 58.925 17.2875C58.9063 17.3188 58.8125 17.5938 58.7188 17.9063C58.625 18.2125 58.5313 18.4938 58.5063 18.5188C58.4813 18.5438 58.3751 18.0813 58.2751 17.4875L58.0938 16.4125L57.8125 16.2L57.5313 15.9813L57.4875 16.2563C57.4688 16.4063 57.4438 16.6563 57.4438 16.8063C57.4375 16.9563 57.4188 17.0625 57.3938 17.0438C57.375 17.0188 57.2125 16.675 57.0375 16.2688L56.7188 15.5375L56.3 15.3688C56.075 15.275 55.8751 15.2125 55.8563 15.225C55.8438 15.2438 55.8563 15.3938 55.8876 15.5688C55.9188 15.7438 55.9375 15.9 55.925 15.9125C55.9125 15.925 55.75 15.725 55.5688 15.475C55.3125 15.1188 55.2 15.0063 55.0438 14.9688C54.5688 14.8688 53.875 14.7688 53.8813 14.8063C53.8813 14.825 54.0813 15 54.3188 15.1875C54.9313 15.6625 55.9813 16.7688 56.4875 17.4563C57.5063 18.8313 58.3126 20.4625 58.8376 22.2063C59.0626 22.95 59.4001 24.375 59.3563 24.4125C59.3438 24.425 59.225 24.1938 59.0938 23.8875C58.8438 23.3063 58.55 22.775 58.0375 21.9688L57.7188 21.4688L57.6501 21.7813C57.6126 21.9563 57.5626 22.05 57.5438 22C57.5251 21.95 57.4313 21.6813 57.3376 21.4063C57.2438 21.1313 57.1188 20.8188 57.0563 20.7188C56.9626 20.5625 56.3688 20 56.3 20C56.2875 20 56.2688 20.2188 56.2626 20.4813C56.2563 20.7438 56.2376 20.9688 56.2313 20.9813C56.2188 20.9875 56.0313 20.6563 55.8125 20.2313C55.6 19.8125 55.3938 19.4375 55.3625 19.3938C55.2938 19.3063 54.3125 18.9188 54.2688 18.9625C54.2563 18.975 54.325 19.2563 54.4313 19.5875C54.5375 19.9188 54.625 20.2188 54.625 20.25C54.625 20.2813 54.2688 19.9563 53.8313 19.5313L53.0313 18.7563L52.675 18.75H52.3125L52.5875 19.2C52.7438 19.45 52.8563 19.6625 52.8438 19.675C52.8375 19.6875 52.5125 19.5063 52.1313 19.275L51.4375 18.8625L51 18.9688C50.7625 19.025 50.5625 19.0938 50.5625 19.1188C50.5625 19.1438 50.6625 19.2563 50.7813 19.375C50.9 19.4875 50.9875 19.5938 50.975 19.6063C50.9625 19.625 50.7063 19.5563 50.4125 19.4688L49.875 19.3L49.275 19.5938C48.9438 19.75 48.6875 19.8938 48.7 19.9063C48.7063 19.9188 49.0875 19.9563 49.5313 19.9938C52.7625 20.2688 55.7375 21.7 58.6563 24.3938C58.8625 24.5813 59.0126 24.7563 58.9938 24.775C58.9751 24.7938 58.8188 24.7688 58.6501 24.7188C57.9751 24.5188 55.5625 24.2688 55.5625 24.4C55.5625 24.425 55.65 24.5188 55.75 24.6063C55.8563 24.6938 55.9313 24.7813 55.9125 24.7938C55.9 24.8063 55.5875 24.7375 55.2188 24.6313L54.55 24.4375L54.0688 24.5375C53.8063 24.5938 53.5688 24.6563 53.5375 24.6875C53.5125 24.7125 53.6813 24.8688 53.9125 25.025C54.3063 25.2875 54.325 25.3125 54.1563 25.3125C54.05 25.3125 53.6875 25.2688 53.3438 25.2188C53 25.1688 52.6438 25.125 52.5563 25.125C52.3563 25.125 51.3938 25.7375 51.475 25.8125C51.5063 25.8375 51.8125 25.9375 52.15 26.0375C52.875 26.2375 52.8813 26.2375 51.6438 26.4688C51.1688 26.5563 50.7375 26.6438 50.6813 26.6625C50.575 26.6938 50.25 27.1375 50.25 27.25C50.25 27.2875 50.45 27.3125 50.75 27.3125C51.025 27.3125 51.25 27.3313 51.25 27.3563C51.25 27.3875 50.9188 27.55 50.5188 27.7313L49.7875 28.05L49.6438 28.4188C49.4375 28.9563 49.4375 28.9563 49.8625 28.9063L50.2188 28.8625L49.7813 29.1875C49.5438 29.3688 49.325 29.5438 49.3063 29.5813C49.2563 29.6563 49.05 30.9438 49.0813 30.975C49.0938 30.9875 49.2375 30.8063 49.4063 30.575C49.8313 30 51.2375 28.6 51.8438 28.1563C53.7125 26.7813 55.8938 25.8188 58.2626 25.3063C59.3813 25.0688 59.3375 25.0688 59.2188 25.3563C59 25.8813 58.675 27.15 58.5313 28.0313C58.45 28.5438 58.3063 29.825 58.2188 30.875C58.0313 33.0563 57.8626 34.4625 57.6813 35.275C57.4563 36.3063 56.5313 39.25 56.4375 39.25C56.4063 39.25 56.15 39.1938 55.8625 39.125C52.8563 38.4188 49.5501 38.45 46.4438 39.225C45.8313 39.3813 45.5313 39.4313 45.5063 39.3813C45.4813 39.3438 45.4 38.9563 45.3188 38.5188C44.9875 36.6438 44.175 32.6938 43.9063 31.625C43.325 29.3125 42.7 27.7125 41.0063 24.1688C40.3938 22.8875 40.0688 22.1313 39.6188 20.9375C39.1375 19.6438 38.95 18.9 38.8938 18.1063L38.8563 17.4875L39.0063 17.5313C39.0875 17.5563 39.3688 17.6938 39.625 17.8313C41.75 18.9688 43.3313 20.1313 44.9125 21.7125C45.9626 22.7688 46.4688 23.3813 47.175 24.4375C47.7438 25.2938 48.5188 26.8 48.8125 27.6188C48.9938 28.1313 49.0313 28.1875 49.0813 28.0563C49.1313 27.9188 49.3063 26.725 49.3125 26.5C49.3125 26.4438 49.1313 26.1563 48.9063 25.85C48.6813 25.5438 48.5125 25.2813 48.525 25.2688C48.5375 25.25 48.7188 25.3313 48.9313 25.4313L49.3125 25.625V25.2938C49.3125 24.4313 49.3188 24.4438 48.425 23.6813C47.9813 23.3063 47.6563 23 47.7 23C47.7438 23 48.0563 23.0688 48.3938 23.15C48.725 23.2313 49 23.2813 49 23.2625C49 23.2438 48.9563 23.0625 48.9 22.8625C48.775 22.425 48.8 22.4375 47.4063 21.725C46.825 21.425 46.3188 21.15 46.2875 21.1188C46.25 21.0875 46.5875 21.0625 47.15 21.0625H48.0688L47.8688 20.7813C47.7563 20.625 47.5375 20.3563 47.3813 20.1875L47.0938 19.8688L45.9375 19.6875C45.3 19.5813 44.7563 19.4875 44.7188 19.475C44.6875 19.4688 44.9375 19.3688 45.2813 19.25C45.625 19.1375 45.925 19.0313 45.95 19.0063C45.975 18.9875 45.75 18.825 45.45 18.6563L44.9063 18.3438L43.9563 18.325C43.4313 18.3125 43 18.2813 43 18.2563C43 18.2313 43.15 18.1438 43.325 18.05L43.6563 17.8938L43.2813 17.7813C42.4313 17.5313 40.5188 17.25 39.6313 17.25C39.4063 17.25 39.3125 17.225 39.375 17.1938C39.7125 17.0063 41.8938 16.5188 43.1875 16.3438C44.2438 16.2 46.5 16.15 47.5625 16.2438C49.625 16.425 51.6625 16.9813 53.3125 17.8125C53.5875 17.95 53.8125 18.0438 53.8125 18.025C53.8125 17.9875 53.0875 16.9625 52.8563 16.675C52.8 16.6063 52.525 16.525 52.025 16.4313L51.2813 16.2938L51.7438 16.1375L52.2125 15.9813L51.7625 15.55C51.3563 15.1625 51.2875 15.125 51.1063 15.15C50.9938 15.1688 50.5125 15.2 50.0313 15.2188L49.1563 15.2563L49.7625 14.8938C50.0938 14.7 50.3563 14.5188 50.3375 14.4938C50.325 14.4688 50.1563 14.3563 49.9688 14.25L49.6313 14.0563L48.3125 14.4438C47.5875 14.6563 46.9813 14.8125 46.9625 14.8C46.95 14.7813 47.2188 14.5 47.5563 14.1688C48.2438 13.5063 48.2438 13.55 47.5625 13.4375C46.7063 13.3063 46.7 13.3063 45.625 14.0625C45.0938 14.4313 44.65 14.7313 44.6375 14.7188C44.625 14.7063 44.7625 14.425 44.9438 14.0875L45.2688 13.4813L45.025 13.525C44.8938 13.55 44.5813 13.6313 44.3375 13.7C43.925 13.8188 43.8438 13.875 43.225 14.4438C42.8625 14.7875 42.55 15.0625 42.5313 15.0625C42.5125 15.0625 42.5563 14.9125 42.625 14.7313C42.6938 14.5563 42.75 14.3875 42.75 14.3688C42.75 14.2563 40.5375 15.5 39.8438 16C39.35 16.3563 39.325 16.3563 39.625 16C41.4688 13.7875 43.8063 11.9125 46.15 10.7563C47.6125 10.0313 48.7313 9.64378 50.1125 9.37503C51.2813 9.14378 51.2563 9.18753 50.3688 8.88753C49.9313 8.74378 49.5188 8.62503 49.4438 8.62503C49.3688 8.62503 49.0313 8.76878 48.6875 8.93753C48.3438 9.11253 48.0625 9.23753 48.0625 9.21878C48.0625 9.20003 48.1875 9.02503 48.3438 8.83128C48.5438 8.57503 48.6 8.46253 48.5438 8.42503C48.5 8.40628 48.2188 8.36253 47.925 8.33753L47.3875 8.29378L46.5688 8.96253C46.1188 9.32503 45.75 9.60628 45.75 9.58753C45.75 9.56253 45.8688 9.28128 46.0063 8.95628C46.15 8.63753 46.25 8.35003 46.225 8.33128C46.1938 8.30003 45.375 8.40628 45.35 8.45003C45.2375 8.60628 43.7688 10.4938 43.7 10.5625C43.6188 10.6438 43.6125 10.6313 43.65 10.4375C43.8313 9.49378 43.925 8.90628 43.9 8.88128C43.8563 8.83128 42.8375 9.36878 42.6688 9.53128C42.5875 9.60628 42.3875 10.075 42.1625 10.7188C41.9625 11.3 41.775 11.8063 41.75 11.8313C41.725 11.8625 41.6688 11.5688 41.625 11.1938C41.575 10.8125 41.5313 10.5 41.5188 10.5C41.4875 10.5 41.0625 10.9813 40.8313 11.2875C40.6313 11.5438 40.5875 11.6813 40.4375 12.45C40.3438 12.925 40.25 13.3313 40.2375 13.3438C40.225 13.3625 40.175 13.2313 40.1313 13.0625C40.0875 12.8875 40.0313 12.7375 40.0063 12.7188C39.8688 12.6375 39.0125 14.5875 38.7625 15.5625L38.6438 16.0313L38.5688 15.5625C38.4125 14.5875 37.8563 12.5625 37.7438 12.5625C37.7188 12.5625 37.65 12.7 37.5875 12.875C37.525 13.0438 37.4563 13.1875 37.4313 13.1875C37.4125 13.1875 37.3688 12.9 37.3438 12.55C37.2688 11.475 37.2438 11.375 36.8438 10.7813C36.6 10.4063 36.4688 10.2625 36.4375 10.3188C36.4125 10.3688 36.3313 10.6688 36.25 10.9813C36.175 11.3 36.1063 11.5625 36.0938 11.5625C36.0875 11.5625 35.9438 11.0313 35.7813 10.375L35.4875 9.19378L35.1625 8.95003C34.7813 8.66253 34.3313 8.37503 34.2688 8.37503C34.2375 8.37503 34.2438 8.76878 34.2813 9.25003C34.3188 9.73128 34.3313 10.125 34.3125 10.125C34.2938 10.125 33.9625 9.60003 33.5688 8.96878C33.1813 8.33128 32.8188 7.78753 32.7563 7.75628C32.6438 7.69378 31.9938 7.55003 31.9625 7.58128C31.95 7.58753 32.0375 7.90628 32.1563 8.28128L32.375 8.96253L31.6063 8.20003L30.8438 7.43753H30.2313C29.9 7.43753 29.625 7.45628 29.625 7.48128Z" fill="#1A191A"/>
<path d="M51.5625 45.975C51.4063 45.9875 50.9188 46.0312 50.4688 46.0625C46.3375 46.4062 41.7563 47.7625 37.4375 49.9125C35.7 50.7812 34.45 51.5125 33.4063 52.2687C31.8375 53.4125 30.8938 54.3562 31.1063 54.5687C31.3188 54.7812 32.2875 54.55 34.3813 53.7812C41.6813 51.0937 47.425 49.8125 52.1313 49.8125C56.2313 49.8125 59.5688 50.6687 62.75 52.5312C64.6438 53.6437 66.2438 54.2687 67.8438 54.5375C68.5813 54.6562 69.9625 54.675 70.5938 54.5687C72 54.3312 73.2938 53.7 74.3375 52.7312C74.575 52.5125 74.5813 52.5 74.4125 52.5625C74.3188 52.6 73.9563 52.6562 73.6188 52.6937C71.3813 52.9375 68.3188 51.7812 65.15 49.4937C63.6625 48.4187 61.5313 47.4187 59.5125 46.8375C57.4625 46.25 55.7125 46 53.4063 45.9687C52.55 45.9625 51.7188 45.9625 51.5625 45.975Z" fill="#2497B2"/>
<path d="M0.46 83L0.514 82.712L2.08 81.956L3.808 72.164L2.494 71.408L2.548 71.12H7.894C9.502 71.12 10.678 71.36 11.422 71.84C12.166 72.32 12.538 73.016 12.538 73.928C12.538 74.624 12.322 75.254 11.89 75.818C11.458 76.382 10.792 76.832 9.892 77.168C9.004 77.504 7.858 77.672 6.454 77.672H5.896L5.158 81.956L6.85 82.712L6.796 83H0.46ZM6.868 72.11L6.04 76.862H6.688C7.288 76.862 7.78 76.736 8.164 76.484C8.56 76.22 8.848 75.872 9.028 75.44C9.208 75.008 9.298 74.534 9.298 74.018C9.298 73.418 9.112 72.95 8.74 72.614C8.38 72.278 7.852 72.11 7.156 72.11H6.868ZM15.4885 83.18C14.7205 83.18 14.0785 83.012 13.5625 82.676C13.0465 82.34 12.6565 81.89 12.3925 81.326C12.1405 80.762 12.0145 80.138 12.0145 79.454C12.0145 78.818 12.1285 78.206 12.3565 77.618C12.5965 77.03 12.9205 76.508 13.3285 76.052C13.7365 75.584 14.2105 75.218 14.7505 74.954C15.3025 74.678 15.8905 74.54 16.5145 74.54C17.3545 74.54 18.0445 74.708 18.5845 75.044C19.1365 75.368 19.5445 75.812 19.8085 76.376C20.0845 76.94 20.2225 77.57 20.2225 78.266C20.2225 78.878 20.1085 79.478 19.8805 80.066C19.6645 80.642 19.3465 81.164 18.9265 81.632C18.5065 82.1 18.0085 82.478 17.4325 82.766C16.8565 83.042 16.2085 83.18 15.4885 83.18ZM15.7585 82.226C16.0465 82.226 16.3105 82.01 16.5505 81.578C16.7905 81.134 16.9825 80.564 17.1265 79.868C17.2705 79.16 17.3425 78.41 17.3425 77.618C17.3425 76.886 17.2705 76.346 17.1265 75.998C16.9825 75.65 16.7725 75.476 16.4965 75.476C16.2085 75.476 15.9385 75.692 15.6865 76.124C15.4465 76.544 15.2545 77.102 15.1105 77.798C14.9665 78.482 14.8945 79.22 14.8945 80.012C14.8945 80.66 14.9605 81.194 15.0925 81.614C15.2245 82.022 15.4465 82.226 15.7585 82.226ZM21.2099 83L22.3979 76.142L21.3539 75.548V75.26L25.1699 74.54H25.2239V76.268H25.3679C25.7399 75.788 26.0339 75.428 26.2499 75.188C26.4779 74.936 26.6819 74.768 26.8619 74.684C27.0539 74.588 27.2639 74.54 27.4919 74.54C27.7919 74.54 28.0379 74.618 28.2299 74.774C28.4339 74.918 28.5359 75.056 28.5359 75.188C28.5359 75.32 28.5059 75.452 28.4459 75.584L27.6899 77.114H27.5819L27.3659 76.952C27.2099 76.832 27.0599 76.736 26.9159 76.664C26.7839 76.592 26.5919 76.556 26.3399 76.556C25.9079 76.556 25.5119 76.736 25.1519 77.096L24.1439 83H21.2099ZM31.0562 83.18C30.3602 83.18 29.8202 82.982 29.4362 82.586C29.0522 82.19 28.8602 81.608 28.8602 80.84C28.8602 80.696 28.8662 80.546 28.8782 80.39C28.9022 80.222 28.9262 80.054 28.9502 79.886L29.7062 75.512H28.6622L28.7342 75.17L30.9122 74.144L32.6222 72.866H33.0902L32.7662 74.72H34.9082V75.512H32.6222L31.9202 79.472C31.8842 79.7 31.8602 79.868 31.8482 79.976C31.8362 80.072 31.8302 80.156 31.8302 80.228C31.8302 80.768 32.0642 81.038 32.5322 81.038C32.8082 81.038 33.0722 80.93 33.3242 80.714C33.5762 80.486 33.8162 80.078 34.0442 79.49L34.4582 79.616C34.1222 80.684 33.6662 81.548 33.0902 82.208C32.5262 82.856 31.8482 83.18 31.0562 83.18ZM36.9828 83.18C36.4788 83.18 36.0648 82.982 35.7408 82.586C35.4168 82.19 35.2548 81.638 35.2548 80.93C35.2548 79.994 35.4288 79.136 35.7768 78.356C36.1248 77.576 36.5808 76.904 37.1448 76.34C37.7088 75.764 38.3268 75.32 38.9988 75.008C39.6708 74.696 40.3308 74.54 40.9788 74.54C41.6628 74.54 42.1908 74.708 42.5628 75.044L43.6788 74.72H43.9668L42.9408 80.642C42.9048 80.858 42.9108 81.038 42.9588 81.182C43.0188 81.326 43.1208 81.398 43.2648 81.398C43.4208 81.398 43.5888 81.308 43.7688 81.128C43.9488 80.936 44.1468 80.6 44.3628 80.12L44.7588 80.246C44.4348 81.122 44.0448 81.83 43.5888 82.37C43.1328 82.91 42.5688 83.18 41.8968 83.18C41.3328 83.18 40.8828 83.024 40.5468 82.712C40.2228 82.4 40.0488 81.932 40.0248 81.308H39.9168C39.5448 81.776 39.2088 82.148 38.9088 82.424C38.6088 82.688 38.3088 82.88 38.0088 83C37.7088 83.12 37.3668 83.18 36.9828 83.18ZM38.3148 79.796C38.3148 80.3 38.3568 80.666 38.4408 80.894C38.5248 81.11 38.6688 81.218 38.8728 81.218C39.0888 81.218 39.2928 81.14 39.4848 80.984C39.6768 80.828 39.8808 80.612 40.0968 80.336V80.3L40.8888 75.62C40.7088 75.5 40.4988 75.44 40.2588 75.44C39.8748 75.44 39.5388 75.644 39.2508 76.052C38.9628 76.448 38.7348 76.982 38.5668 77.654C38.3988 78.314 38.3148 79.028 38.3148 79.796ZM47.4323 83.18C46.7243 83.18 46.2023 82.94 45.8663 82.46C45.5423 81.98 45.4643 81.26 45.6323 80.3L47.2523 71.102L46.0103 70.508V70.22L50.4023 69.5H50.4563L48.4763 80.642C48.4403 80.858 48.4463 81.038 48.4943 81.182C48.5543 81.326 48.6563 81.398 48.8003 81.398C48.9563 81.398 49.1243 81.308 49.3043 81.128C49.4843 80.936 49.6823 80.6 49.8983 80.12L50.2943 80.246C49.9703 81.122 49.5803 81.83 49.1243 82.37C48.6683 82.91 48.1043 83.18 47.4323 83.18ZM57.1274 83.18C56.6234 83.18 56.2094 82.982 55.8854 82.586C55.5614 82.19 55.3994 81.638 55.3994 80.93C55.3994 79.994 55.5734 79.136 55.9214 78.356C56.2694 77.576 56.7254 76.904 57.2894 76.34C57.8534 75.764 58.4714 75.32 59.1434 75.008C59.8154 74.696 60.4754 74.54 61.1234 74.54C61.1594 74.54 61.1954 74.54 61.2314 74.54L61.8254 71.084L60.4214 70.508V70.22L64.9754 69.5H65.0294L63.0854 80.642C63.0494 80.858 63.0554 81.038 63.1034 81.182C63.1634 81.326 63.2654 81.398 63.4094 81.398C63.5654 81.398 63.7334 81.308 63.9134 81.128C64.0934 80.936 64.2914 80.6 64.5074 80.12L64.9034 80.246C64.5794 81.122 64.1894 81.83 63.7334 82.37C63.2774 82.91 62.7134 83.18 62.0414 83.18C61.4774 83.18 61.0274 83.024 60.6914 82.712C60.3674 82.4 60.1934 81.932 60.1694 81.308H60.0614C59.6894 81.776 59.3534 82.148 59.0534 82.424C58.7534 82.688 58.4534 82.88 58.1534 83C57.8534 83.12 57.5114 83.18 57.1274 83.18ZM58.4594 79.796C58.4594 80.3 58.5014 80.666 58.5854 80.894C58.6694 81.11 58.8134 81.218 59.0174 81.218C59.2334 81.218 59.4374 81.14 59.6294 80.984C59.8214 80.828 60.0254 80.612 60.2414 80.336V80.3L61.0334 75.62C60.8534 75.488 60.6434 75.422 60.4034 75.422C60.0194 75.422 59.6834 75.626 59.3954 76.034C59.1074 76.442 58.8794 76.982 58.7114 77.654C58.5434 78.314 58.4594 79.028 58.4594 79.796ZM61.3214 75.908C61.2974 75.86 61.2674 75.818 61.2314 75.782L61.3214 75.908ZM68.9611 83.18C68.1931 83.18 67.5511 83.012 67.0351 82.676C66.5191 82.34 66.1291 81.89 65.8651 81.326C65.6131 80.762 65.4871 80.138 65.4871 79.454C65.4871 78.818 65.6011 78.206 65.8291 77.618C66.0691 77.03 66.3931 76.508 66.8011 76.052C67.2091 75.584 67.6831 75.218 68.2231 74.954C68.7751 74.678 69.3631 74.54 69.9871 74.54C70.8271 74.54 71.5171 74.708 72.0571 75.044C72.6091 75.368 73.0171 75.812 73.2811 76.376C73.5571 76.94 73.6951 77.57 73.6951 78.266C73.6951 78.878 73.5811 79.478 73.3531 80.066C73.1371 80.642 72.8191 81.164 72.3991 81.632C71.9791 82.1 71.4811 82.478 70.9051 82.766C70.3291 83.042 69.6811 83.18 68.9611 83.18ZM69.2311 82.226C69.5191 82.226 69.7831 82.01 70.0231 81.578C70.2631 81.134 70.4551 80.564 70.5991 79.868C70.7431 79.16 70.8151 78.41 70.8151 77.618C70.8151 76.886 70.7431 76.346 70.5991 75.998C70.4551 75.65 70.2451 75.476 69.9691 75.476C69.6811 75.476 69.4111 75.692 69.1591 76.124C68.9191 76.544 68.7271 77.102 68.5831 77.798C68.4391 78.482 68.3671 79.22 68.3671 80.012C68.3671 80.66 68.4331 81.194 68.5651 81.614C68.6971 82.022 68.9191 82.226 69.2311 82.226ZM82.6926 83.18C81.9486 83.18 81.2946 83.096 80.7306 82.928C80.1666 82.748 79.6506 82.508 79.1826 82.208L79.5066 79.094H79.8306L80.9286 81.632C81.0966 81.764 81.3186 81.896 81.5946 82.028C81.8706 82.16 82.2126 82.226 82.6206 82.226C83.2566 82.226 83.8026 82.064 84.2586 81.74C84.7146 81.404 84.9426 80.96 84.9426 80.408C84.9426 80.048 84.8646 79.748 84.7086 79.508C84.5646 79.268 84.3066 79.016 83.9346 78.752C83.5746 78.488 83.0706 78.152 82.4226 77.744C81.9666 77.456 81.6006 77.18 81.3246 76.916C81.0486 76.652 80.8446 76.358 80.7126 76.034C80.5806 75.71 80.5146 75.314 80.5146 74.846C80.5146 74.126 80.7246 73.472 81.1446 72.884C81.5646 72.284 82.1346 71.81 82.8546 71.462C83.5746 71.114 84.3966 70.94 85.3206 70.94C85.8966 70.94 86.4426 71.018 86.9586 71.174C87.4866 71.33 87.9426 71.54 88.3266 71.804L88.0386 74.684H87.7146L86.6346 72.47C86.4666 72.314 86.2746 72.182 86.0586 72.074C85.8426 71.966 85.5666 71.912 85.2306 71.912C84.6906 71.912 84.2406 72.08 83.8806 72.416C83.5206 72.752 83.3406 73.154 83.3406 73.622C83.3406 73.898 83.3886 74.15 83.4846 74.378C83.5926 74.594 83.7786 74.822 84.0426 75.062C84.3066 75.29 84.6966 75.566 85.2126 75.89C85.7646 76.238 86.2266 76.556 86.5986 76.844C86.9706 77.132 87.2466 77.456 87.4266 77.816C87.6186 78.176 87.7146 78.614 87.7146 79.13C87.7146 79.85 87.4986 80.522 87.0666 81.146C86.6466 81.758 86.0586 82.25 85.3026 82.622C84.5586 82.994 83.6886 83.18 82.6926 83.18ZM92.5334 83.18C91.7654 83.18 91.1234 83.012 90.6074 82.676C90.0914 82.34 89.7014 81.89 89.4374 81.326C89.1854 80.762 89.0594 80.138 89.0594 79.454C89.0594 78.818 89.1734 78.206 89.4014 77.618C89.6414 77.03 89.9654 76.508 90.3734 76.052C90.7814 75.584 91.2554 75.218 91.7954 74.954C92.3474 74.678 92.9354 74.54 93.5594 74.54C94.3994 74.54 95.0894 74.708 95.6294 75.044C96.1814 75.368 96.5894 75.812 96.8534 76.376C97.1294 76.94 97.2674 77.57 97.2674 78.266C97.2674 78.878 97.1534 79.478 96.9254 80.066C96.7094 80.642 96.3914 81.164 95.9714 81.632C95.5514 82.1 95.0534 82.478 94.4774 82.766C93.9014 83.042 93.2534 83.18 92.5334 83.18ZM92.8034 82.226C93.0914 82.226 93.3554 82.01 93.5954 81.578C93.8354 81.134 94.0274 80.564 94.1714 79.868C94.3154 79.16 94.3874 78.41 94.3874 77.618C94.3874 76.886 94.3154 76.346 94.1714 75.998C94.0274 75.65 93.8174 75.476 93.5414 75.476C93.2534 75.476 92.9834 75.692 92.7314 76.124C92.4914 76.544 92.2994 77.102 92.1554 77.798C92.0114 78.482 91.9394 79.22 91.9394 80.012C91.9394 80.66 92.0054 81.194 92.1374 81.614C92.2694 82.022 92.4914 82.226 92.8034 82.226ZM100.325 83.18C99.6168 83.18 99.0948 82.94 98.7588 82.46C98.4348 81.98 98.3568 81.26 98.5248 80.3L100.145 71.102L98.9028 70.508V70.22L103.295 69.5H103.349L101.369 80.642C101.333 80.858 101.339 81.038 101.387 81.182C101.447 81.326 101.549 81.398 101.693 81.398C101.849 81.398 102.017 81.308 102.197 81.128C102.377 80.936 102.575 80.6 102.791 80.12L103.187 80.246C102.863 81.122 102.473 81.83 102.017 82.37C101.561 82.91 100.997 83.18 100.325 83.18Z" fill="black"/>
<path d="M29.224 58.84C28.92 58.84 28.6453 58.8933 28.4 59C28.1547 59.1013 27.9467 59.2533 27.776 59.456C27.6053 59.6533 27.4747 59.896 27.384 60.184C27.2933 60.4667 27.248 60.7867 27.248 61.144C27.248 61.6133 27.32 62.0213 27.464 62.368C27.6133 62.7147 27.832 62.9813 28.12 63.168C28.4133 63.3547 28.7787 63.448 29.216 63.448C29.4667 63.448 29.704 63.4267 29.928 63.384C30.152 63.3413 30.3707 63.288 30.584 63.224V63.848C30.3707 63.928 30.1493 63.9867 29.92 64.024C29.696 64.0613 29.4267 64.08 29.112 64.08C28.5307 64.08 28.0453 63.96 27.656 63.72C27.2667 63.48 26.9733 63.1387 26.776 62.696C26.584 62.2533 26.488 61.7333 26.488 61.136C26.488 60.704 26.5467 60.3093 26.664 59.952C26.7867 59.5947 26.9627 59.2853 27.192 59.024C27.4267 58.7627 27.7147 58.5627 28.056 58.424C28.3973 58.28 28.7893 58.208 29.232 58.208C29.5253 58.208 29.808 58.2373 30.08 58.296C30.352 58.3547 30.5947 58.4373 30.808 58.544L30.52 59.152C30.344 59.072 30.1467 59 29.928 58.936C29.7147 58.872 29.48 58.84 29.224 58.84ZM35.4627 61.848C35.4627 62.2053 35.4147 62.5227 35.3187 62.8C35.228 63.072 35.0947 63.304 34.9187 63.496C34.748 63.688 34.5374 63.8347 34.2867 63.936C34.0414 64.032 33.7667 64.08 33.4627 64.08C33.18 64.08 32.9187 64.032 32.6787 63.936C32.4387 63.8347 32.2307 63.688 32.0547 63.496C31.8787 63.304 31.74 63.072 31.6387 62.8C31.5427 62.5227 31.4947 62.2053 31.4947 61.848C31.4947 61.3733 31.5747 60.9733 31.7347 60.648C31.8947 60.3173 32.124 60.0667 32.4227 59.896C32.7214 59.72 33.076 59.632 33.4867 59.632C33.876 59.632 34.2174 59.72 34.5107 59.896C34.8094 60.0667 35.0414 60.3173 35.2067 60.648C35.3774 60.9733 35.4627 61.3733 35.4627 61.848ZM32.2227 61.848C32.2227 62.184 32.2654 62.4773 32.3507 62.728C32.4414 62.9733 32.58 63.1627 32.7667 63.296C32.9534 63.4293 33.1907 63.496 33.4787 63.496C33.7667 63.496 34.004 63.4293 34.1907 63.296C34.3774 63.1627 34.5134 62.9733 34.5987 62.728C34.6894 62.4773 34.7347 62.184 34.7347 61.848C34.7347 61.5067 34.6894 61.216 34.5987 60.976C34.508 60.736 34.3694 60.552 34.1827 60.424C34.0014 60.2907 33.764 60.224 33.4707 60.224C33.0334 60.224 32.716 60.368 32.5187 60.656C32.3214 60.944 32.2227 61.3413 32.2227 61.848ZM38.6424 59.632C39.1544 59.632 39.5411 59.7573 39.8024 60.008C40.0638 60.2533 40.1944 60.6533 40.1944 61.208V64H39.4984V61.256C39.4984 60.9093 39.4211 60.6507 39.2664 60.48C39.1118 60.3093 38.8691 60.224 38.5384 60.224C38.0638 60.224 37.7358 60.3573 37.5544 60.624C37.3731 60.8907 37.2824 61.2747 37.2824 61.776V64H36.5784V59.712H37.1464L37.2504 60.296H37.2904C37.3864 60.1467 37.5038 60.024 37.6424 59.928C37.7864 59.8267 37.9438 59.752 38.1144 59.704C38.2851 59.656 38.4611 59.632 38.6424 59.632ZM43.0438 64.08C42.5104 64.08 42.0838 63.896 41.7638 63.528C41.4438 63.1547 41.2838 62.6 41.2838 61.864C41.2838 61.128 41.4438 60.5733 41.7638 60.2C42.0891 59.8213 42.5184 59.632 43.0518 59.632C43.2758 59.632 43.4704 59.6613 43.6358 59.72C43.8011 59.7733 43.9451 59.848 44.0678 59.944C44.1904 60.04 44.2944 60.1467 44.3798 60.264H44.4278C44.4224 60.1947 44.4118 60.0933 44.3958 59.96C44.3851 59.8213 44.3798 59.712 44.3798 59.632V57.92H45.0838V64H44.5158L44.4118 63.424H44.3798C44.2944 63.5467 44.1904 63.6587 44.0678 63.76C43.9451 63.856 43.7984 63.9333 43.6278 63.992C43.4624 64.0507 43.2678 64.08 43.0438 64.08ZM43.1558 63.496C43.6091 63.496 43.9264 63.3733 44.1078 63.128C44.2944 62.8773 44.3878 62.5013 44.3878 62V61.872C44.3878 61.3387 44.2998 60.9307 44.1238 60.648C43.9478 60.36 43.6224 60.216 43.1478 60.216C42.7691 60.216 42.4838 60.368 42.2918 60.672C42.1051 60.9707 42.0118 61.3733 42.0118 61.88C42.0118 62.392 42.1051 62.7893 42.2918 63.072C42.4838 63.3547 42.7718 63.496 43.1558 63.496ZM50.1736 61.848C50.1736 62.2053 50.1256 62.5227 50.0296 62.8C49.939 63.072 49.8056 63.304 49.6296 63.496C49.459 63.688 49.2483 63.8347 48.9976 63.936C48.7523 64.032 48.4776 64.08 48.1736 64.08C47.891 64.08 47.6296 64.032 47.3896 63.936C47.1496 63.8347 46.9416 63.688 46.7656 63.496C46.5896 63.304 46.451 63.072 46.3496 62.8C46.2536 62.5227 46.2056 62.2053 46.2056 61.848C46.2056 61.3733 46.2856 60.9733 46.4456 60.648C46.6056 60.3173 46.835 60.0667 47.1336 59.896C47.4323 59.72 47.787 59.632 48.1976 59.632C48.587 59.632 48.9283 59.72 49.2216 59.896C49.5203 60.0667 49.7523 60.3173 49.9176 60.648C50.0883 60.9733 50.1736 61.3733 50.1736 61.848ZM46.9336 61.848C46.9336 62.184 46.9763 62.4773 47.0616 62.728C47.1523 62.9733 47.291 63.1627 47.4776 63.296C47.6643 63.4293 47.9016 63.496 48.1896 63.496C48.4776 63.496 48.715 63.4293 48.9016 63.296C49.0883 63.1627 49.2243 62.9733 49.3096 62.728C49.4003 62.4773 49.4456 62.184 49.4456 61.848C49.4456 61.5067 49.4003 61.216 49.3096 60.976C49.219 60.736 49.0803 60.552 48.8936 60.424C48.7123 60.2907 48.475 60.224 48.1816 60.224C47.7443 60.224 47.427 60.368 47.2296 60.656C47.0323 60.944 46.9336 61.3413 46.9336 61.848ZM55.9934 59.632C56.4787 59.632 56.8414 59.7573 57.0814 60.008C57.3214 60.2533 57.4414 60.6533 57.4414 61.208V64H56.7454V61.24C56.7454 60.904 56.6734 60.6507 56.5294 60.48C56.3907 60.3093 56.172 60.224 55.8734 60.224C55.4574 60.224 55.1587 60.344 54.9774 60.584C54.8014 60.824 54.7134 61.1733 54.7134 61.632V64H54.0174V61.24C54.0174 61.016 53.9854 60.8293 53.9214 60.68C53.8574 60.5253 53.7614 60.4107 53.6334 60.336C53.5054 60.2613 53.34 60.224 53.1374 60.224C52.8494 60.224 52.6227 60.2853 52.4574 60.408C52.292 60.5253 52.172 60.6987 52.0974 60.928C52.028 61.1573 51.9934 61.44 51.9934 61.776V64H51.2894V59.712H51.8574L51.9614 60.296H52.0014C52.092 60.1467 52.2014 60.024 52.3294 59.928C52.4627 59.8267 52.6094 59.752 52.7694 59.704C52.9294 59.656 53.0947 59.632 53.2654 59.632C53.596 59.632 53.8707 59.6907 54.0894 59.808C54.3134 59.9253 54.476 60.1067 54.5774 60.352H54.6174C54.7614 60.1067 54.956 59.9253 55.2014 59.808C55.452 59.6907 55.716 59.632 55.9934 59.632ZM59.4699 64H58.7659V59.712H59.4699V64ZM60.3019 57.952C60.2539 58.0267 60.1846 58.1173 60.0939 58.224C60.0033 58.3307 59.9019 58.4427 59.7899 58.56C59.6833 58.672 59.5739 58.7813 59.4619 58.888C59.3553 58.9893 59.2539 59.0773 59.1579 59.152H58.6939V59.056C58.7739 58.9547 58.8593 58.8347 58.9499 58.696C59.0459 58.5573 59.1393 58.416 59.2299 58.272C59.3206 58.1227 59.3953 57.9893 59.4539 57.872H60.3019V57.952ZM62.8924 59.632C63.4044 59.632 63.7911 59.7573 64.0524 60.008C64.3138 60.2533 64.4444 60.6533 64.4444 61.208V64H63.7484V61.256C63.7484 60.9093 63.6711 60.6507 63.5164 60.48C63.3618 60.3093 63.1191 60.224 62.7884 60.224C62.3138 60.224 61.9858 60.3573 61.8044 60.624C61.6231 60.8907 61.5324 61.2747 61.5324 61.776V64H60.8284V59.712H61.3964L61.5004 60.296H61.5404C61.6364 60.1467 61.7538 60.024 61.8924 59.928C62.0364 59.8267 62.1938 59.752 62.3644 59.704C62.5351 59.656 62.7111 59.632 62.8924 59.632ZM66.4778 59.712V64H65.7738V59.712H66.4778ZM66.1338 58.104C66.2404 58.104 66.3338 58.1413 66.4138 58.216C66.4991 58.2853 66.5418 58.3973 66.5418 58.552C66.5418 58.7013 66.4991 58.8133 66.4138 58.888C66.3338 58.9627 66.2404 59 66.1338 59C66.0164 59 65.9178 58.9627 65.8378 58.888C65.7578 58.8133 65.7178 58.7013 65.7178 58.552C65.7178 58.3973 65.7578 58.2853 65.8378 58.216C65.9178 58.1413 66.0164 58.104 66.1338 58.104ZM71.5642 61.848C71.5642 62.2053 71.5163 62.5227 71.4203 62.8C71.3296 63.072 71.1963 63.304 71.0203 63.496C70.8496 63.688 70.6389 63.8347 70.3883 63.936C70.1429 64.032 69.8683 64.08 69.5643 64.08C69.2816 64.08 69.0203 64.032 68.7803 63.936C68.5403 63.8347 68.3323 63.688 68.1562 63.496C67.9803 63.304 67.8416 63.072 67.7403 62.8C67.6443 62.5227 67.5963 62.2053 67.5963 61.848C67.5963 61.3733 67.6763 60.9733 67.8363 60.648C67.9963 60.3173 68.2256 60.0667 68.5243 59.896C68.8229 59.72 69.1776 59.632 69.5883 59.632C69.9776 59.632 70.3189 59.72 70.6123 59.896C70.9109 60.0667 71.1429 60.3173 71.3083 60.648C71.4789 60.9733 71.5642 61.3733 71.5642 61.848ZM68.3243 61.848C68.3243 62.184 68.3669 62.4773 68.4523 62.728C68.5429 62.9733 68.6816 63.1627 68.8683 63.296C69.0549 63.4293 69.2923 63.496 69.5803 63.496C69.8683 63.496 70.1056 63.4293 70.2923 63.296C70.4789 63.1627 70.6149 62.9733 70.7003 62.728C70.7909 62.4773 70.8363 62.184 70.8363 61.848C70.8363 61.5067 70.7909 61.216 70.7003 60.976C70.6096 60.736 70.4709 60.552 70.2843 60.424C70.1029 60.2907 69.8656 60.224 69.5723 60.224C69.1349 60.224 68.8176 60.368 68.6203 60.656C68.4229 60.944 68.3243 61.3413 68.3243 61.848Z" fill="#2497B2"/>
</svg>
