<svg width="43" height="44" viewBox="0 0 43 44" fill="none" xmlns="http://www.w3.org/2000/svg">
<circle cx="23" cy="24" r="20" fill="#F6C90E"/>
<path d="M33.4431 18.6048C27.5881 13.8 19.4106 13.8 13.5556 18.5952C13.4036 18.7219 13.2767 18.8807 13.1826 19.062C13.0885 19.2432 13.0292 19.4433 13.0081 19.6502C12.9877 19.8605 13.006 20.0731 13.0621 20.2757C13.1182 20.4782 13.2109 20.6666 13.3348 20.8298L22.422 32.4533C22.5546 32.6235 22.7195 32.7605 22.9055 32.8549C23.0915 32.9492 23.2941 32.9987 23.4993 33C23.7025 32.9992 23.9032 32.9508 24.0876 32.8581C24.272 32.7654 24.4358 32.6306 24.5679 32.4629L33.6639 20.8202C33.7893 20.6599 33.883 20.4733 33.9392 20.272C33.9954 20.0708 34.0129 19.8591 33.9906 19.6502C33.9709 19.4443 33.9121 19.245 33.8178 19.0651C33.7236 18.8852 33.596 18.7284 33.4431 18.6048ZM30.2551 22.815C29.7796 22.4317 29.2777 22.0886 28.7538 21.7888L28.6832 21.7505C28.1778 21.4627 27.6521 21.219 27.1112 21.0216L26.9788 20.9832C26.4492 20.7879 25.9057 20.6404 25.3539 20.5421L25.2126 20.5229C24.0782 20.3183 22.9205 20.3183 21.7861 20.5229L21.6448 20.5421C21.094 20.6417 20.5509 20.7859 20.0199 20.9736L19.8875 21.0216C19.3472 21.2208 18.8217 21.4644 18.3155 21.7505L18.2449 21.7888C17.7227 22.0865 17.2236 22.4297 16.7524 22.815L14.4122 19.8228C19.7638 15.44 27.2437 15.44 32.5865 19.8324L30.2551 22.815Z" fill="#F7F7F7"/>
</svg>
