<svg width="40" height="40" viewBox="0 0 40 40" fill="none" xmlns="http://www.w3.org/2000/svg">
<circle cx="20" cy="20" r="20" fill="#303841"/>
<path d="M30.5 27.5H29V18.8281C29.0005 18.619 28.9565 18.4122 28.8708 18.2214C28.7851 18.0307 28.6598 17.8604 28.5031 17.7219L21.0031 10.9062C20.7281 10.6539 20.3685 10.5139 19.9953 10.5139C19.6221 10.5139 19.2625 10.6539 18.9875 10.9062L11.4875 17.7219C11.3339 17.8623 11.2113 18.0332 11.1274 18.2237C11.0434 18.4142 11.0001 18.62 11 18.8281V27.5H9.5C9.30109 27.5 9.11032 27.579 8.96967 27.7197C8.82902 27.8603 8.75 28.0511 8.75 28.25C8.75 28.4489 8.82902 28.6397 8.96967 28.7803C9.11032 28.921 9.30109 29 9.5 29H30.5C30.6989 29 30.8897 28.921 31.0303 28.7803C31.171 28.6397 31.25 28.4489 31.25 28.25C31.25 28.0511 31.171 27.8603 31.0303 27.7197C30.8897 27.579 30.6989 27.5 30.5 27.5ZM22.25 27.5H17.75V23C17.75 22.8011 17.829 22.6103 17.9697 22.4697C18.1103 22.329 18.3011 22.25 18.5 22.25H21.5C21.6989 22.25 21.8897 22.329 22.0303 22.4697C22.171 22.6103 22.25 22.8011 22.25 23V27.5Z" fill="#F9F9F9"/>
</svg>
