<svg width="40" height="40" viewBox="0 0 40 40" fill="none" xmlns="http://www.w3.org/2000/svg">
<circle cx="20" cy="20" r="20" fill="#F6C90E"/>
<path d="M28.9457 11.7866C28.9321 11.5969 28.8506 11.4184 28.7162 11.2839C28.5817 11.1494 28.4033 11.0679 28.2137 11.0543C20.7668 10.615 14.8034 12.8606 12.2561 17.0687C11.3743 18.5077 10.9395 20.1762 11.0068 21.8627C11.0653 23.4151 11.5143 24.9968 12.3537 26.5492L22.143 16.7465C22.2947 16.622 22.4873 16.5583 22.6833 16.568C22.8793 16.5776 23.0647 16.6598 23.2035 16.7986C23.3423 16.9375 23.4245 17.123 23.4341 17.3191C23.4437 17.5152 23.3801 17.7078 23.2556 17.8596L13.4565 27.6525C15.0084 28.4922 16.5895 28.9413 18.1413 28.9999H18.4634C20.0406 29.0067 21.5884 28.574 22.9335 27.7502C27.1401 25.2019 29.3849 19.2363 28.9457 11.7866Z" fill="#F9F9F9"/>
<path d="M11.1375 28.5124C11 28.2874 10.875 28.0624 10.75 27.8374L8.28751 30.2874C8.09973 30.477 7.99438 30.7331 7.99438 30.9999C7.99438 31.2668 8.09973 31.5228 8.28751 31.7124C8.47865 31.8972 8.73413 32.0005 9.00001 32.0005C9.26589 32.0005 9.52137 31.8972 9.71251 31.7124L12.1625 29.2499L11.4875 28.8624C11.3471 28.7722 11.2277 28.6528 11.1375 28.5124Z" fill="#F9F9F9"/>
</svg>
