<svg width="40" height="40" viewBox="0 0 40 40" fill="none" xmlns="http://www.w3.org/2000/svg">
<circle cx="20" cy="20" r="20" fill="#303841"/>
<path d="M11.1605 14.1312C11.0381 13.9401 10.9822 13.6973 11.005 13.4559C11.0278 13.2144 11.1275 12.9938 11.2823 12.8422C12.0984 12.1043 13.0255 11.5723 14.0101 11.2771C15.5193 10.8167 17.8628 10.7017 20.4124 12.7847C24.387 16.0416 27.6491 12.9688 27.7803 12.8307C27.9383 12.6826 28.137 12.6155 28.3345 12.6434C28.532 12.6713 28.713 12.792 28.8395 12.9803C28.9619 13.1714 29.0178 13.4142 28.995 13.6556C28.9722 13.8971 28.8725 14.1177 28.7177 14.2693C27.9016 15.0072 26.9745 15.5391 25.9899 15.8344C25.3859 16.0191 24.7657 16.1118 24.1432 16.1106C22.8309 16.1106 21.2561 15.6848 19.5876 14.3268C15.613 11.0699 12.3509 14.1427 12.2197 14.2808C12.0617 14.4289 11.863 14.496 11.6655 14.4681C11.468 14.4402 11.287 14.3194 11.1605 14.1312ZM27.7803 19.2754C27.6491 19.4135 24.387 22.4863 20.4124 19.2294C17.8628 17.1464 15.5193 17.2614 14.0101 17.7218C13.0255 18.017 12.0984 18.549 11.2823 19.2869C11.1275 19.4385 11.0278 19.6591 11.005 19.9006C10.9822 20.142 11.0381 20.3848 11.1605 20.5759C11.287 20.7641 11.468 20.8849 11.6655 20.9128C11.863 20.9407 12.0617 20.8736 12.2197 20.7255C12.3509 20.5874 15.613 17.5146 19.5876 20.7715C21.2561 22.1295 22.8309 22.5553 24.1432 22.5553C24.7657 22.5565 25.3859 22.4637 25.9899 22.2791C26.9745 21.9838 27.9016 21.4519 28.7177 20.714C28.8725 20.5624 28.9722 20.3418 28.995 20.1003C29.0178 19.8589 28.9619 19.6161 28.8395 19.425C28.713 19.2367 28.532 19.116 28.3345 19.0881C28.137 19.0602 27.9383 19.1273 27.7803 19.2754ZM27.7803 25.7201C27.6491 25.8582 24.387 28.931 20.4124 25.6741C17.8628 23.5911 15.5193 23.7061 14.0101 24.1665C13.0255 24.4617 12.0984 24.9937 11.2823 25.7316C11.1275 25.8832 11.0278 26.1038 11.005 26.3453C10.9822 26.5867 11.0381 26.8295 11.1605 27.0206C11.287 27.2088 11.468 27.3296 11.6655 27.3575C11.863 27.3854 12.0617 27.3183 12.2197 27.1702C12.3509 27.0321 15.613 23.9593 19.5876 27.2162C21.2561 28.5742 22.8309 29 24.1432 29C25.7887 28.9986 27.391 28.3536 28.7177 27.1587C28.8725 27.0071 28.9722 26.7865 28.995 26.545C29.0178 26.3036 28.9619 26.0608 28.8395 25.8697C28.713 25.6814 28.532 25.5607 28.3345 25.5328C28.137 25.5049 27.9383 25.572 27.7803 25.7201Z" fill="#F9F9F9"/>
</svg>
